<?xml version="1.0" encoding="UTF-8" standalone="no"?>
<!-- Created with Inkscape (http://www.inkscape.org/) -->

<svg
   xmlns:dc="http://purl.org/dc/elements/1.1/"
   xmlns:cc="http://creativecommons.org/ns#"
   xmlns:rdf="http://www.w3.org/1999/02/22-rdf-syntax-ns#"
   xmlns:svg="http://www.w3.org/2000/svg"
   xmlns="http://www.w3.org/2000/svg"
   xmlns:sodipodi="http://sodipodi.sourceforge.net/DTD/sodipodi-0.dtd"
   xmlns:inkscape="http://www.inkscape.org/namespaces/inkscape"
   width="62.045902mm"
   height="29.933493mm"
   viewBox="0 0 219.84769 106.06356"
   id="svg2"
   version="1.1"
   inkscape:version="0.91 r13725"
   sodipodi:docname="logo-oca.svg">
  <defs
     id="defs4" />
  <sodipodi:namedview
     id="base"
     pagecolor="#ffffff"
     bordercolor="#666666"
     borderopacity="1.0"
     inkscape:pageopacity="0.0"
     inkscape:pageshadow="2"
     inkscape:zoom="2.8"
     inkscape:cx="111.2497"
     inkscape:cy="42.335517"
     inkscape:document-units="px"
     inkscape:current-layer="layer1"
     showgrid="false"
     fit-margin-top="0"
     fit-margin-left="0"
     fit-margin-right="0"
     fit-margin-bottom="0"
     inkscape:window-width="1920"
     inkscape:window-height="1013"
     inkscape:window-x="-6"
     inkscape:window-y="0"
     inkscape:window-maximized="1" />
  <metadata
     id="metadata7">
    <rdf:RDF>
      <cc:Work
         rdf:about="">
        <dc:format>image/svg+xml</dc:format>
        <dc:type
           rdf:resource="http://purl.org/dc/dcmitype/StillImage" />
        <dc:title></dc:title>
      </cc:Work>
    </rdf:RDF>
  </metadata>
  <g
     inkscape:label="Layer 1"
     inkscape:groupmode="layer"
     id="layer1"
     transform="translate(-262.7134,-781.27383)">
    <g
       id="g4521"
       transform="translate(6.4285714,-0.17857121)">
      <path
         style="fill:#79b01c"
         d="m 339.37144,887.16417 c -2.74799,-0.60907 -5.76227,-1.84236 -8.16863,-3.34217 -2.20394,-1.37366 -5.48137,-4.15224 -5.48137,-4.64707 0,-0.14845 1.29265,-0.2699 2.87255,-0.2699 2.80566,0 2.91918,0.0275 4.875,1.18267 2.57649,1.52171 6.06066,2.6755 9.15324,3.03113 3.38727,0.38952 96.68355,0.36696 100.39888,-0.0243 7.16405,-0.75439 13.42158,-3.77125 18.61175,-8.97304 15.12838,-15.16223 13.75213,-41.97714 -2.82838,-55.10821 -8.51022,-6.73974 -19.4856,-8.35429 -29.51915,-4.34246 -0.87235,0.3488 -1.76552,0.63419 -1.9848,0.63419 -0.21928,0 -0.7015,-0.84375 -1.0716,-1.875 -1.08683,-3.02836 -4.08681,-8.60983 -6.0123,-11.18594 -5.95246,-7.96375 -13.26231,-12.96585 -22.42714,-15.3468 -2.96732,-0.77088 -3.63879,-0.83427 -8.61805,-0.81356 -4.80629,0.02 -5.71615,0.10708 -8.27553,0.79205 -7.32094,1.95931 -13.23445,5.37307 -18.26422,10.5436 l -1.63975,1.68564 -2.48525,0 c -1.78894,0 -2.48486,-0.10507 -2.48386,-0.375 9e-4,-0.20625 0.92841,-1.455 2.06142,-2.775 10.83507,-12.62325 28.17015,-17.60576 43.68719,-12.55673 11.01049,3.58266 20.23187,11.84496 25.98427,23.28173 0.88058,1.75074 1.65228,2.925 1.92226,2.925 0.24809,0 1.42811,-0.28173 2.62227,-0.62606 2.8177,-0.81247 9.97908,-1.12425 13.34825,-0.58113 9.2929,1.49804 17.88831,7.27101 23.59991,15.8505 3.14594,4.72558 5.31734,10.18737 6.37673,16.03962 0.67652,3.73723 0.67652,11.39691 0,15.13414 -1.55239,8.57565 -5.43813,16.14833 -11.2881,21.99871 -4.53075,4.53105 -9.65401,7.55591 -15.81225,9.33579 l -2.35334,0.68018 -52.5,0.0632 c -42.75853,0.0514 -52.83399,-0.0109 -54.3,-0.33578 z M 322.03672,869.491 c -2.76115,-1.02675 -4.21127,-2.67007 -4.75787,-5.39177 -0.64384,-3.20594 0.47534,-6.00345 3.10953,-7.77259 2.13783,-1.43579 4.89171,-2.07872 9.7912,-2.2859 l 4.39186,-0.18571 -0.009,-2.42586 c -0.012,-3.17725 -0.86511,-4.99029 -2.84817,-6.05318 -1.20778,-0.64736 -1.62892,-0.70773 -4.19264,-0.60105 -2.21685,0.0922 -3.28321,0.29722 -4.8,0.92266 -1.80539,0.74446 -1.97781,0.76659 -2.325,0.29842 -1.08109,-1.4578 0.45195,-2.50112 4.83839,-3.29279 4.11491,-0.74267 7.29264,-0.15024 9.34589,1.74238 2.27341,2.09556 2.35088,2.54474 2.47147,14.33048 0.10599,10.35954 0.0698,10.80282 -0.88432,10.82435 -0.54231,0.0122 -1.08349,-1.00368 -1.26548,-2.37556 -0.1109,-0.83592 -0.28423,-1.51985 -0.38518,-1.51985 -0.10096,0 -0.84323,0.61705 -1.6495,1.37122 -2.12442,1.98714 -3.74606,2.62208 -6.99628,2.73931 -1.80287,0.065 -3.07703,-0.0428 -3.83472,-0.32456 z m 7.73472,-2.72249 c 0.825,-0.40185 1.70799,-0.90678 1.96221,-1.12206 1.83665,-1.55536 3.0953,-4.91215 2.92867,-7.81068 l -0.0909,-1.58074 -2.25,-0.0914 c -4.51715,-0.18351 -9.64492,0.94255 -11.03627,2.42357 -1.93373,2.05836 -2.05665,5.43424 -0.26875,7.38109 1.03394,1.12586 2.26747,1.51258 4.85502,1.52208 1.94434,0.007 2.68479,-0.12991 3.9,-0.72185 z m 49.25327,2.56434 c -4.48916,-1.48121 -7.0024,-4.86683 -7.73973,-10.42628 -0.88668,-6.6856 1.3823,-12.50376 5.83516,-14.9626 2.94296,-1.62509 6.31109,-2.0184 10.21024,-1.1923 2.60746,0.55244 2.94352,0.81335 2.53968,1.9718 -0.35757,1.02571 -0.30204,1.0163 -2.54701,0.43156 -2.48464,-0.64717 -5.72896,-0.58101 -7.7016,0.15705 -4.0414,1.51208 -6.18038,5.92622 -5.81149,11.99295 0.27924,4.59232 1.94956,7.78803 4.85177,9.28256 1.92486,0.99122 6.23288,1.22586 9.05948,0.49341 1.01026,-0.26178 1.92675,-0.47597 2.03664,-0.47597 0.1099,0 0.15791,0.50625 0.1067,1.125 -0.0839,1.01416 -0.21134,1.16576 -1.29311,1.53874 -0.66,0.22756 -2.685,0.46475 -4.5,0.52708 -2.66827,0.0916 -3.63438,0.003 -5.04673,-0.463 z m 22.9066,0.11153 c -4.51103,-1.26626 -7.38392,-4.87006 -8.13512,-10.20482 -1.02555,-7.28305 1.63443,-13.59523 6.70496,-15.911 1.60758,-0.7342 2.24955,-0.8552 4.57029,-0.86139 3.30643,-0.009 5.21521,0.73209 7.06999,2.7443 1.82673,1.98176 2.67954,4.10274 3.07217,7.64056 0.31457,2.83445 0.30021,3.0435 -0.23594,3.43555 -0.45807,0.33495 -2.37548,0.41745 -9.70231,0.41745 l -9.13141,0 0.20828,1.84094 c 0.424,3.74766 1.97723,6.43381 4.61631,7.98341 1.25721,0.73821 1.74798,0.83483 4.7257,0.93042 2.47014,0.0793 3.81733,-0.0256 5.25,-0.40882 3.4442,-0.92126 3.27721,-0.92545 3.27721,0.0823 0,0.49403 -0.16875,1.03064 -0.375,1.19246 -1.68989,1.32585 -8.79916,1.99327 -11.91513,1.1186 z m 10.6829,-15.59262 c 0.31269,-0.81487 -0.52595,-4.2319 -1.42498,-5.80604 -1.29108,-2.2606 -2.80775,-3.1558 -5.58416,-3.296 -3.82587,-0.1932 -6.35355,1.26913 -7.92034,4.58212 -0.87523,1.85066 -1.3705,4.09522 -1.02645,4.65189 0.13291,0.21506 2.77506,0.3213 7.99028,0.3213 6.67421,0 7.81666,-0.065 7.96565,-0.45327 z m -156.24106,15.50718 c -0.42654,-0.17455 0.52381,-2.75257 6.6,-17.90391 6.82929,-17.02923 7.12939,-17.70358 7.91885,-17.7945 0.67843,-0.0781 0.89938,0.0778 1.27568,0.9 0.97148,2.12276 13.35376,33.93558 13.35376,34.30876 0,0.51707 -0.95657,0.80827 -1.88753,0.57461 -0.64166,-0.16105 -1.05087,-0.97931 -3.11911,-6.23712 l -2.38056,-6.05175 -7.32424,0 -7.32424,0 -2.3032,5.83285 c -1.26676,3.20806 -2.54453,6.00931 -2.8395,6.225 -0.57904,0.42341 -1.1828,0.46817 -1.96991,0.14606 z m 20.32848,-15.17442 c 0.2039,-0.53133 -5.32104,-15.24311 -5.78221,-15.39683 -0.18765,-0.0625 -0.50893,0.39951 -0.71393,1.0268 -0.20501,0.6273 -1.50277,4.04046 -2.88391,7.5848 -1.38115,3.54435 -2.44543,6.6156 -2.36507,6.825 0.22446,0.58494 11.52008,0.54669 11.74512,-0.0398 z m 12.59124,14.94908 c -0.41832,-0.41831 -0.47091,-2.5223 -0.46684,-18.675 0.002,-10.01196 0.11794,-18.38233 0.25646,-18.60082 0.15148,-0.23891 0.65785,-0.3585 1.27041,-0.3 l 1.01854,0.0973 0.0781,18.6 c 0.0723,17.21981 0.0403,18.62783 -0.43234,18.975 -0.67969,0.4993 -1.15523,0.47271 -1.72437,-0.0964 z m 10.10128,0.22271 c -0.29783,-0.18908 -0.36102,-4.18433 -0.3,-18.9704 l 0.0773,-18.73088 1.125,-0.0931 1.125,-0.0931 0,18.88601 c 0,16.94483 -0.0488,18.90473 -0.47454,19.06811 -0.63297,0.2429 -1.09655,0.22301 -1.55275,-0.0666 z m 9.99872,-0.22271 c -0.41364,-0.41364 -0.47087,-2.00407 -0.46684,-12.975 0.002,-6.87696 0.11794,-12.68233 0.25646,-12.90082 0.15148,-0.23892 0.65785,-0.3585 1.27041,-0.3 l 1.01854,0.0973 0.0789,12.9 c 0.0725,11.86105 0.0377,12.9302 -0.43233,13.275 -0.68062,0.49928 -1.15595,0.47272 -1.72509,-0.0964 z m 35.43205,0.0964 c -0.47002,-0.3448 -0.50484,-1.41395 -0.43234,-13.275 l 0.0789,-12.9 0.86745,-0.099 c 1.01253,-0.11559 1.37152,0.31593 1.37796,1.65631 0.007,1.43229 0.46956,1.46256 1.98363,0.12982 1.9302,-1.69903 3.81437,-2.27439 7.47096,-2.28138 2.73943,-0.005 3.15634,0.0724 4.8,0.89427 2.11899,1.0595 3.51445,2.8835 4.0241,5.25988 0.19595,0.9137 0.3259,5.33368 0.3259,11.08467 0,9.30154 -0.0165,9.57026 -0.6,9.75545 -0.33,0.10474 -0.87,0.10474 -1.2,0 -0.58266,-0.18493 -0.6,-0.45391 -0.6,-9.30545 0,-9.57287 -0.18522,-11.44032 -1.29853,-13.09236 -1.02952,-1.52771 -2.36455,-2.1377 -5.01432,-2.29109 -4.47049,-0.25879 -7.20925,1.03625 -8.63827,4.0847 -0.79849,1.70336 -0.79896,1.70876 -0.94888,10.94061 -0.1262,7.77068 -0.22141,9.28148 -0.6,9.52041 -0.60727,0.38324 -0.98924,0.36367 -1.59652,-0.0818 z m -35.59175,-31.86086 c -0.19895,-0.23972 -0.36173,-1.05609 -0.36173,-1.81414 0,-1.6435 0.42487,-2.25 1.57618,-2.25 1.03055,0 1.47382,0.70192 1.47382,2.33378 0,1.79768 -1.71581,2.9021 -2.68827,1.73036 z M 283.432,833.92475 c -0.41747,-0.78004 -0.423,-19.94907 -0.006,-20.72827 0.37123,-0.69365 1.19542,-0.45879 1.19542,0.34065 0,0.73365 0.42081,0.71834 1.46449,-0.0533 1.81761,-1.34382 5.14314,-1.42039 7.01132,-0.16143 2.08875,1.40761 3.15067,4.38642 2.82126,7.91396 -0.22439,2.40291 -1.00719,4.1642 -2.39062,5.37885 -1.83505,1.61118 -5.18077,1.74829 -7.36642,0.3019 -0.6461,-0.42757 -1.25627,-0.69586 -1.35593,-0.5962 -0.0997,0.0997 -0.0953,1.68513 0.01,3.52328 0.13273,2.32397 0.0834,3.54294 -0.162,4.00145 -0.43509,0.81297 -0.81529,0.83759 -1.22122,0.0791 z m 8.27669,-7.83775 c 0.92146,-0.44607 1.4457,-0.96778 1.88414,-1.875 1.40217,-2.90146 1.05987,-7.21784 -0.72702,-9.16767 -0.9776,-1.06675 -1.04483,-1.0893 -3.24715,-1.0893 -1.98205,0 -2.34533,0.089 -3.06171,0.75 -0.44706,0.4125 -0.99794,1.18442 -1.22417,1.71536 -0.54687,1.28345 -0.54869,6.37939 -0.003,7.66928 1.01117,2.38904 3.77909,3.25575 6.37865,1.99733 z m -24.67164,1.33288 c -1.76339,-0.62539 -3.55759,-2.28066 -4.4415,-4.09757 -2.11796,-4.3536 -1.26506,-11.38867 1.68128,-13.86785 1.97742,-1.66389 3.19696,-2.07996 6.09461,-2.07932 2.34019,5.1e-4 2.90468,0.1072 4.23592,0.8005 2.67011,1.39057 4.0745,3.62408 4.59719,7.31128 0.79773,5.62749 -1.51951,10.55413 -5.62153,11.95183 -1.68857,0.57535 -4.89654,0.56611 -6.54597,-0.0189 z m 6.6468,-1.57875 c 2.5069,-1.13872 3.72943,-3.42592 3.95753,-7.40399 0.26665,-4.6504 -0.92955,-7.44589 -3.82025,-8.92785 -1.43955,-0.738 -1.92092,-0.83309 -3.77891,-0.74648 -2.95775,0.13788 -4.7057,1.21633 -5.96618,3.681 -0.84514,1.65254 -0.9046,1.98709 -0.9046,5.09001 0,2.83121 0.10175,3.54196 0.68965,4.81747 0.8726,1.89318 1.69656,2.78807 3.21035,3.48673 1.62184,0.74852 4.96792,0.7501 6.61241,0.003 z m 29.08502,1.50441 c -1.56443,-0.71071 -3.03492,-2.40857 -3.46305,-3.99851 -0.54821,-2.03589 -0.25267,-5.8382 0.58691,-7.55103 2.11108,-4.3068 8.26835,-4.52408 10.43783,-0.36832 0.4897,0.93803 1.00272,3.99071 0.77228,4.59539 -0.10153,0.26642 -1.56104,0.39068 -5.28583,0.45 l -5.14557,0.082 0.0503,1.44542 c 0.0572,1.64229 0.92709,3.15512 2.27064,3.94877 1.20344,0.7109 3.68671,0.87221 5.57794,0.36235 1.31886,-0.35555 1.62564,-0.36136 1.75158,-0.0332 0.23772,0.61947 -0.12688,0.97794 -1.33632,1.31384 -1.77536,0.49307 -4.85754,0.37075 -6.21673,-0.24671 z m 6.70352,-9.00429 c 0.1705,-1.20559 -0.82784,-3.33084 -1.86046,-3.9605 -1.81743,-1.10821 -4.52199,-0.59735 -5.86298,1.10745 -0.7043,0.89537 -1.35127,2.97387 -1.06823,3.43185 0.11445,0.18517 1.82402,0.26917 4.43843,0.21808 4.22267,-0.0825 4.25299,-0.0881 4.35324,-0.79688 z m 33.76465,9.07863 c -2.95669,-1.0486 -4.97313,-3.86012 -5.54994,-7.73826 -0.77595,-5.21714 1.14237,-9.55597 5.07986,-11.48956 1.48884,-0.73113 2.04607,-0.83586 4.40448,-0.82782 3.12022,0.0106 4.95,0.50832 4.95,1.34635 0,0.81858 -0.35058,0.91122 -1.66984,0.44122 -1.80094,-0.6416 -5.11517,-0.55374 -6.73016,0.17843 -2.94592,1.33555 -4.24604,3.56972 -4.43709,7.62479 -0.14971,3.17788 0.19104,4.66899 1.51617,6.63463 1.73755,2.57743 4.73971,3.45287 9.29592,2.71072 1.30519,-0.2126 1.425,-0.18131 1.425,0.37217 0,0.44273 -0.30075,0.6878 -1.125,0.91671 -1.59968,0.44425 -5.70288,0.34718 -7.1594,-0.16938 z m 21.33183,-0.0582 c -2.53545,-1.18582 -3.79791,-3.52884 -3.83799,-7.12299 -0.0612,-5.48868 3.46067,-8.76832 8.19605,-7.63232 3.26762,0.78389 4.93833,3.37041 4.94052,7.64868 10e-4,3.06058 -1.0363,5.438 -2.9174,6.68286 -1.60732,1.06367 -4.58953,1.26172 -6.38118,0.42377 z m 4.87137,-1.24578 c 2.27576,-1.03307 3.422,-4.13847 2.8104,-7.61396 -0.54004,-3.06887 -2.26591,-4.69689 -4.9792,-4.69689 -3.21373,0 -4.95,2.26816 -4.95,6.46638 0,3.15877 0.75451,4.76699 2.70169,5.75862 1.61281,0.82134 2.74828,0.84341 4.41711,0.0858 z m 10.60252,1.26368 c -2.13992,-1.09117 -2.26044,-1.51109 -2.36419,-8.23769 -0.0965,-6.25402 0.087,-7.35928 1.01307,-6.1045 0.33594,0.45517 0.4298,1.77298 0.4298,6.03454 0,5.01204 0.0488,5.51427 0.60469,6.22095 1.75343,2.22912 6.55491,1.51814 7.66336,-1.13476 0.31425,-0.75209 0.43195,-2.32877 0.43195,-5.7861 0,-3.5131 0.10547,-4.89654 0.40449,-5.30546 0.93972,-1.28515 1.09551,-0.26036 1.09551,7.2062 0,6.02915 -0.0735,7.33229 -0.41341,7.33229 -0.22737,0 -0.60117,-0.28279 -0.83067,-0.62842 l -0.41725,-0.62843 -1.46402,0.77843 c -1.79971,0.95691 -4.55097,1.07001 -6.15333,0.25295 z m 16.46967,-0.14953 c -2.45187,-1.23865 -3.43522,-3.59183 -3.22815,-7.725 0.23903,-4.77078 2.23666,-7.00312 6.27907,-7.01679 1.6696,-0.006 2.19039,0.12461 3.21857,0.80503 0.67466,0.44646 1.29302,0.81176 1.37412,0.81176 0.0811,0 0.18526,-1.72125 0.23144,-3.825 0.079,-3.59701 0.11972,-3.825 0.68396,-3.825 0.58854,0 0.6,0.2 0.6,10.475 0,7.94348 -0.088,10.50432 -0.36394,10.59631 -0.20016,0.0667 -0.45105,-0.22578 -0.55752,-0.65 -0.22199,-0.88449 -0.76985,-0.99465 -1.36681,-0.27484 -1.17774,1.42014 -4.67118,1.73971 -6.87074,0.62853 z m 5.8476,-1.29511 c 1.4619,-0.95787 1.81141,-2.05381 1.81141,-5.67989 0,-3.73467 -0.38331,-4.83965 -2.03956,-5.87955 -0.76596,-0.48092 -1.34787,-0.58117 -2.87376,-0.49508 -1.75219,0.0988 -1.99666,0.19889 -2.90307,1.18796 -1.19678,1.3059 -1.63403,2.74743 -1.61877,5.33667 0.0256,4.33451 1.85416,6.47378 5.28342,6.18104 0.85155,-0.0727 1.90469,-0.36571 2.34033,-0.65115 z m -87.22822,1.48048 c -0.37846,-0.37846 -0.24899,-14.45109 0.13514,-14.6885 0.32038,-0.198 0.99268,0.4427 1.23856,1.18034 0.0612,0.18364 0.48904,0.0442 1.01635,-0.33131 1.92062,-1.36759 5.28245,-1.55373 7.18336,-0.39772 1.64282,0.99906 1.99162,2.27284 2.15299,7.86251 0.16058,5.56244 0.0356,6.56431 -0.81911,6.56431 -0.53742,0 -0.57668,-0.33 -0.66929,-5.625 -0.1075,-6.14707 -0.34047,-7.11059 -1.88999,-7.81659 -1.23549,-0.56293 -3.76386,-0.44429 -4.86708,0.22839 -1.87302,1.14206 -2.02581,1.67509 -2.1913,7.64514 -0.12665,4.56877 -0.22233,5.42495 -0.61463,5.49996 -0.25554,0.0489 -0.55929,-0.006 -0.675,-0.12153 z m 40.43464,-0.16519 c -0.0842,-0.21953 -0.11758,-4.98826 -0.0741,-10.59717 0.0773,-9.97165 0.0924,-10.19801 0.67908,-10.19801 0.58857,0 0.6,0.2 0.6,10.49589 0,9.76447 -0.0367,10.50295 -0.52591,10.59717 -0.28925,0.0557 -0.59483,-0.0783 -0.67908,-0.29788 z"
         id="path4525"
         inkscape:connector-curvature="0" />
      <path
         style="fill:#696a6c"
         d="m 322.03672,869.491 c -2.76115,-1.02675 -4.21127,-2.67007 -4.75787,-5.39177 -0.64384,-3.20594 0.47534,-6.00345 3.10953,-7.77259 2.13783,-1.43579 4.89171,-2.07872 9.7912,-2.2859 l 4.39186,-0.18571 -0.009,-2.42586 c -0.012,-3.17725 -0.86511,-4.99029 -2.84817,-6.05318 -1.20778,-0.64736 -1.62892,-0.70773 -4.19264,-0.60105 -2.21685,0.0922 -3.28321,0.29722 -4.8,0.92266 -1.80539,0.74446 -1.97781,0.76659 -2.325,0.29842 -1.08109,-1.4578 0.45195,-2.50112 4.83839,-3.29279 4.11491,-0.74267 7.29264,-0.15024 9.34589,1.74238 2.27341,2.09556 2.35088,2.54474 2.47147,14.33048 0.10599,10.35954 0.0698,10.80282 -0.88432,10.82435 -0.54231,0.0122 -1.08349,-1.00368 -1.26548,-2.37556 -0.1109,-0.83592 -0.28423,-1.51985 -0.38518,-1.51985 -0.10096,0 -0.84323,0.61705 -1.6495,1.37122 -2.12442,1.98714 -3.74606,2.62208 -6.99628,2.73931 -1.80287,0.065 -3.07703,-0.0428 -3.83472,-0.32456 z m 7.73472,-2.72249 c 0.825,-0.40185 1.70799,-0.90678 1.96221,-1.12206 1.83665,-1.55536 3.0953,-4.91215 2.92867,-7.81068 l -0.0909,-1.58074 -2.25,-0.0914 c -4.51715,-0.18351 -9.64492,0.94255 -11.03627,2.42357 -1.93373,2.05836 -2.05665,5.43424 -0.26875,7.38109 1.03394,1.12586 2.26747,1.51258 4.85502,1.52208 1.94434,0.007 2.68479,-0.12991 3.9,-0.72185 z m 49.25327,2.56434 c -4.48916,-1.48121 -7.0024,-4.86683 -7.73973,-10.42628 -0.88668,-6.6856 1.3823,-12.50376 5.83516,-14.9626 2.94296,-1.62509 6.31109,-2.0184 10.21024,-1.1923 2.60746,0.55244 2.94352,0.81335 2.53968,1.9718 -0.35757,1.02571 -0.30204,1.0163 -2.54701,0.43156 -2.48464,-0.64717 -5.72896,-0.58101 -7.7016,0.15705 -4.0414,1.51208 -6.18038,5.92622 -5.81149,11.99295 0.27924,4.59232 1.94956,7.78803 4.85177,9.28256 1.92486,0.99122 6.23288,1.22586 9.05948,0.49341 1.01026,-0.26178 1.92675,-0.47597 2.03664,-0.47597 0.1099,0 0.15791,0.50625 0.1067,1.125 -0.0839,1.01416 -0.21134,1.16576 -1.29311,1.53874 -0.66,0.22756 -2.685,0.46475 -4.5,0.52708 -2.66827,0.0916 -3.63438,0.003 -5.04673,-0.463 z m 22.9066,0.11153 c -4.51103,-1.26626 -7.38392,-4.87006 -8.13512,-10.20482 -1.02555,-7.28305 1.63443,-13.59523 6.70496,-15.911 1.60758,-0.7342 2.24955,-0.8552 4.57029,-0.86139 3.30643,-0.009 5.21521,0.73209 7.06999,2.7443 1.82673,1.98176 2.67954,4.10274 3.07217,7.64056 0.31457,2.83445 0.30021,3.0435 -0.23594,3.43555 -0.45807,0.33495 -2.37548,0.41745 -9.70231,0.41745 l -9.13141,0 0.20828,1.84094 c 0.424,3.74766 1.97723,6.43381 4.61631,7.98341 1.25721,0.73821 1.74798,0.83483 4.7257,0.93042 2.47014,0.0793 3.81733,-0.0256 5.25,-0.40882 3.4442,-0.92126 3.27721,-0.92545 3.27721,0.0823 0,0.49403 -0.16875,1.03064 -0.375,1.19246 -1.68989,1.32585 -8.79916,1.99327 -11.91513,1.1186 z m 10.6829,-15.59262 c 0.31269,-0.81487 -0.52595,-4.2319 -1.42498,-5.80604 -1.29108,-2.2606 -2.80775,-3.1558 -5.58416,-3.296 -3.82587,-0.1932 -6.35355,1.26913 -7.92034,4.58212 -0.87523,1.85066 -1.3705,4.09522 -1.02645,4.65189 0.13291,0.21506 2.77506,0.3213 7.99028,0.3213 6.67421,0 7.81666,-0.065 7.96565,-0.45327 z m -156.24106,15.50718 c -0.42654,-0.17455 0.52381,-2.75257 6.6,-17.90391 6.82929,-17.02923 7.12939,-17.70358 7.91885,-17.7945 0.67843,-0.0781 0.89938,0.0778 1.27568,0.9 0.97148,2.12276 13.35376,33.93558 13.35376,34.30876 0,0.51707 -0.95657,0.80827 -1.88753,0.57461 -0.64166,-0.16105 -1.05087,-0.97931 -3.11911,-6.23712 l -2.38056,-6.05175 -7.32424,0 -7.32424,0 -2.3032,5.83285 c -1.26676,3.20806 -2.54453,6.00931 -2.8395,6.225 -0.57904,0.42341 -1.1828,0.46817 -1.96991,0.14606 z m 20.32848,-15.17442 c 0.2039,-0.53133 -5.32104,-15.24311 -5.78221,-15.39683 -0.18765,-0.0625 -0.50893,0.39951 -0.71393,1.0268 -0.20501,0.6273 -1.50277,4.04046 -2.88391,7.5848 -1.38115,3.54435 -2.44543,6.6156 -2.36507,6.825 0.22446,0.58494 11.52008,0.54669 11.74512,-0.0398 z m 12.59124,14.94908 c -0.41832,-0.41831 -0.47091,-2.5223 -0.46684,-18.675 0.002,-10.01196 0.11794,-18.38233 0.25646,-18.60082 0.15148,-0.23891 0.65785,-0.3585 1.27041,-0.3 l 1.01854,0.0973 0.0781,18.6 c 0.0723,17.21981 0.0403,18.62783 -0.43234,18.975 -0.67969,0.4993 -1.15523,0.47271 -1.72437,-0.0964 z m 10.10128,0.22271 c -0.29783,-0.18908 -0.36102,-4.18433 -0.3,-18.9704 l 0.0773,-18.73088 1.125,-0.0931 1.125,-0.0931 0,18.88601 c 0,16.94483 -0.0488,18.90473 -0.47454,19.06811 -0.63297,0.2429 -1.09655,0.22301 -1.55275,-0.0666 z m 9.99872,-0.22271 c -0.41364,-0.41364 -0.47087,-2.00407 -0.46684,-12.975 0.002,-6.87696 0.11794,-12.68233 0.25646,-12.90082 0.15148,-0.23892 0.65785,-0.3585 1.27041,-0.3 l 1.01854,0.0973 0.0789,12.9 c 0.0725,11.86105 0.0377,12.9302 -0.43233,13.275 -0.68062,0.49928 -1.15595,0.47272 -1.72509,-0.0964 z m 35.43205,0.0964 c -0.47002,-0.3448 -0.50484,-1.41395 -0.43234,-13.275 l 0.0789,-12.9 0.86745,-0.099 c 1.01253,-0.11559 1.37152,0.31593 1.37796,1.65631 0.007,1.43229 0.46956,1.46256 1.98363,0.12982 1.9302,-1.69903 3.81437,-2.27439 7.47096,-2.28138 2.73943,-0.005 3.15634,0.0724 4.8,0.89427 2.11899,1.0595 3.51445,2.8835 4.0241,5.25988 0.19595,0.9137 0.3259,5.33368 0.3259,11.08467 0,9.30154 -0.0165,9.57026 -0.6,9.75545 -0.33,0.10474 -0.87,0.10474 -1.2,0 -0.58266,-0.18493 -0.6,-0.45391 -0.6,-9.30545 0,-9.57287 -0.18522,-11.44032 -1.29853,-13.09236 -1.02952,-1.52771 -2.36455,-2.1377 -5.01432,-2.29109 -4.47049,-0.25879 -7.20925,1.03625 -8.63827,4.0847 -0.79849,1.70336 -0.79896,1.70876 -0.94888,10.94061 -0.1262,7.77068 -0.22141,9.28148 -0.6,9.52041 -0.60727,0.38324 -0.98924,0.36367 -1.59652,-0.0818 z m -35.59175,-31.86086 c -0.19895,-0.23972 -0.36173,-1.05609 -0.36173,-1.81414 0,-1.6435 0.42487,-2.25 1.57618,-2.25 1.03055,0 1.47382,0.70192 1.47382,2.33378 0,1.79768 -1.71581,2.9021 -2.68827,1.73036 z M 283.432,833.92475 c -0.41747,-0.78004 -0.423,-19.94907 -0.006,-20.72827 0.37123,-0.69365 1.19542,-0.45879 1.19542,0.34065 0,0.73365 0.42081,0.71834 1.46449,-0.0533 1.81761,-1.34382 5.14314,-1.42039 7.01132,-0.16143 2.08875,1.40761 3.15067,4.38642 2.82126,7.91396 -0.22439,2.40291 -1.00719,4.1642 -2.39062,5.37885 -1.83505,1.61118 -5.18077,1.74829 -7.36642,0.3019 -0.6461,-0.42757 -1.25627,-0.69586 -1.35593,-0.5962 -0.0997,0.0997 -0.0953,1.68513 0.01,3.52328 0.13273,2.32397 0.0834,3.54294 -0.162,4.00145 -0.43509,0.81297 -0.81529,0.83759 -1.22122,0.0791 z m 8.27669,-7.83775 c 0.92146,-0.44607 1.4457,-0.96778 1.88414,-1.875 1.40217,-2.90146 1.05987,-7.21784 -0.72702,-9.16767 -0.9776,-1.06675 -1.04483,-1.0893 -3.24715,-1.0893 -1.98205,0 -2.34533,0.089 -3.06171,0.75 -0.44706,0.4125 -0.99794,1.18442 -1.22417,1.71536 -0.54687,1.28345 -0.54869,6.37939 -0.003,7.66928 1.01117,2.38904 3.77909,3.25575 6.37865,1.99733 z m -24.67164,1.33288 c -1.76339,-0.62539 -3.55759,-2.28066 -4.4415,-4.09757 -2.11796,-4.3536 -1.26506,-11.38867 1.68128,-13.86785 1.97742,-1.66389 3.19696,-2.07996 6.09461,-2.07932 2.34019,5.1e-4 2.90468,0.1072 4.23592,0.8005 2.67011,1.39057 4.0745,3.62408 4.59719,7.31128 0.79773,5.62749 -1.51951,10.55413 -5.62153,11.95183 -1.68857,0.57535 -4.89654,0.56611 -6.54597,-0.0189 z m 6.6468,-1.57875 c 2.5069,-1.13872 3.72943,-3.42592 3.95753,-7.40399 0.26665,-4.6504 -0.92955,-7.44589 -3.82025,-8.92785 -1.43955,-0.738 -1.92092,-0.83309 -3.77891,-0.74648 -2.95775,0.13788 -4.7057,1.21633 -5.96618,3.681 -0.84514,1.65254 -0.9046,1.98709 -0.9046,5.09001 0,2.83121 0.10175,3.54196 0.68965,4.81747 0.8726,1.89318 1.69656,2.78807 3.21035,3.48673 1.62184,0.74852 4.96792,0.7501 6.61241,0.003 z m 29.08502,1.50441 c -1.56443,-0.71071 -3.03492,-2.40857 -3.46305,-3.99851 -0.54821,-2.03589 -0.25267,-5.8382 0.58691,-7.55103 2.11108,-4.3068 8.26835,-4.52408 10.43783,-0.36832 0.4897,0.93803 1.00272,3.99071 0.77228,4.59539 -0.10153,0.26642 -1.56104,0.39068 -5.28583,0.45 l -5.14557,0.082 0.0503,1.44542 c 0.0572,1.64229 0.92709,3.15512 2.27064,3.94877 1.20344,0.7109 3.68671,0.87221 5.57794,0.36235 1.31886,-0.35555 1.62564,-0.36136 1.75158,-0.0332 0.23772,0.61947 -0.12688,0.97794 -1.33632,1.31384 -1.77536,0.49307 -4.85754,0.37075 -6.21673,-0.24671 z m 6.70352,-9.00429 c 0.1705,-1.20559 -0.82784,-3.33084 -1.86046,-3.9605 -1.81743,-1.10821 -4.52199,-0.59735 -5.86298,1.10745 -0.7043,0.89537 -1.35127,2.97387 -1.06823,3.43185 0.11445,0.18517 1.82402,0.26917 4.43843,0.21808 4.22267,-0.0825 4.25299,-0.0881 4.35324,-0.79688 z m 33.76465,9.07863 c -2.95669,-1.0486 -4.97313,-3.86012 -5.54994,-7.73826 -0.77595,-5.21714 1.14237,-9.55597 5.07986,-11.48956 1.48884,-0.73113 2.04607,-0.83586 4.40448,-0.82782 3.12022,0.0106 4.95,0.50832 4.95,1.34635 0,0.81858 -0.35058,0.91122 -1.66984,0.44122 -1.80094,-0.6416 -5.11517,-0.55374 -6.73016,0.17843 -2.94592,1.33555 -4.24604,3.56972 -4.43709,7.62479 -0.14971,3.17788 0.19104,4.66899 1.51617,6.63463 1.73755,2.57743 4.73971,3.45287 9.29592,2.71072 1.30519,-0.2126 1.425,-0.18131 1.425,0.37217 0,0.44273 -0.30075,0.6878 -1.125,0.91671 -1.59968,0.44425 -5.70288,0.34718 -7.1594,-0.16938 z m 21.33183,-0.0582 c -2.53545,-1.18582 -3.79791,-3.52884 -3.83799,-7.12299 -0.0612,-5.48868 3.46067,-8.76832 8.19605,-7.63232 3.26762,0.78389 4.93833,3.37041 4.94052,7.64868 10e-4,3.06058 -1.0363,5.438 -2.9174,6.68286 -1.60732,1.06367 -4.58953,1.26172 -6.38118,0.42377 z m 4.87137,-1.24578 c 2.27576,-1.03307 3.422,-4.13847 2.8104,-7.61396 -0.54004,-3.06887 -2.26591,-4.69689 -4.9792,-4.69689 -3.21373,0 -4.95,2.26816 -4.95,6.46638 0,3.15877 0.75451,4.76699 2.70169,5.75862 1.61281,0.82134 2.74828,0.84341 4.41711,0.0858 z m 10.60252,1.26368 c -2.13992,-1.09117 -2.26044,-1.51109 -2.36419,-8.23769 -0.0965,-6.25402 0.087,-7.35928 1.01307,-6.1045 0.33594,0.45517 0.4298,1.77298 0.4298,6.03454 0,5.01204 0.0488,5.51427 0.60469,6.22095 1.75343,2.22912 6.55491,1.51814 7.66336,-1.13476 0.31425,-0.75209 0.43195,-2.32877 0.43195,-5.7861 0,-3.5131 0.10547,-4.89654 0.40449,-5.30546 0.93972,-1.28515 1.09551,-0.26036 1.09551,7.2062 0,6.02915 -0.0735,7.33229 -0.41341,7.33229 -0.22737,0 -0.60117,-0.28279 -0.83067,-0.62842 l -0.41725,-0.62843 -1.46402,0.77843 c -1.79971,0.95691 -4.55097,1.07001 -6.15333,0.25295 z m 16.46967,-0.14953 c -2.45187,-1.23865 -3.43522,-3.59183 -3.22815,-7.725 0.23903,-4.77078 2.23666,-7.00312 6.27907,-7.01679 1.6696,-0.006 2.19039,0.12461 3.21857,0.80503 0.67466,0.44646 1.29302,0.81176 1.37412,0.81176 0.0811,0 0.18526,-1.72125 0.23144,-3.825 0.079,-3.59701 0.11972,-3.825 0.68396,-3.825 0.58854,0 0.6,0.2 0.6,10.475 0,7.94348 -0.088,10.50432 -0.36394,10.59631 -0.20016,0.0667 -0.45105,-0.22578 -0.55752,-0.65 -0.22199,-0.88449 -0.76985,-0.99465 -1.36681,-0.27484 -1.17774,1.42014 -4.67118,1.73971 -6.87074,0.62853 z m 5.8476,-1.29511 c 1.4619,-0.95787 1.81141,-2.05381 1.81141,-5.67989 0,-3.73467 -0.38331,-4.83965 -2.03956,-5.87955 -0.76596,-0.48092 -1.34787,-0.58117 -2.87376,-0.49508 -1.75219,0.0988 -1.99666,0.19889 -2.90307,1.18796 -1.19678,1.3059 -1.63403,2.74743 -1.61877,5.33667 0.0256,4.33451 1.85416,6.47378 5.28342,6.18104 0.85155,-0.0727 1.90469,-0.36571 2.34033,-0.65115 z m -87.22822,1.48048 c -0.37846,-0.37846 -0.24899,-14.45109 0.13514,-14.6885 0.32038,-0.198 0.99268,0.4427 1.23856,1.18034 0.0612,0.18364 0.48904,0.0442 1.01635,-0.33131 1.92062,-1.36759 5.28245,-1.55373 7.18336,-0.39772 1.64282,0.99906 1.99162,2.27284 2.15299,7.86251 0.16058,5.56244 0.0356,6.56431 -0.81911,6.56431 -0.53742,0 -0.57668,-0.33 -0.66929,-5.625 -0.1075,-6.14707 -0.34047,-7.11059 -1.88999,-7.81659 -1.23549,-0.56293 -3.76386,-0.44429 -4.86708,0.22839 -1.87302,1.14206 -2.02581,1.67509 -2.1913,7.64514 -0.12665,4.56877 -0.22233,5.42495 -0.61463,5.49996 -0.25554,0.0489 -0.55929,-0.006 -0.675,-0.12153 z m 40.43464,-0.16519 c -0.0842,-0.21953 -0.11758,-4.98826 -0.0741,-10.59717 0.0773,-9.97165 0.0924,-10.19801 0.67908,-10.19801 0.58857,0 0.6,0.2 0.6,10.49589 0,9.76447 -0.0367,10.50295 -0.52591,10.59717 -0.28925,0.0557 -0.59483,-0.0783 -0.67908,-0.29788 z"
         id="path4523"
         inkscape:connector-curvature="0" />
    </g>
  </g>
</svg>
