<?xml version="1.0" encoding="UTF-8" standalone="no"?>
<svg
   xmlns:dc="http://purl.org/dc/elements/1.1/"
   xmlns:cc="http://creativecommons.org/ns#"
   xmlns:rdf="http://www.w3.org/1999/02/22-rdf-syntax-ns#"
   xmlns:svg="http://www.w3.org/2000/svg"
   xmlns="http://www.w3.org/2000/svg"
   xmlns:xlink="http://www.w3.org/1999/xlink"
   version="1.1"
   id="svg5851"
   viewBox="0 0 625.26227 513.33027"
   height="144.87321mm"
   width="176.46291mm">
  <defs
     id="defs5853">
    <linearGradient
       x1="91.107216"
       y1="170.33635"
       x2="206.29361"
       y2="103.38951"
       id="linearGradient7347"
       xlink:href="#linearGradient7341"
       gradientUnits="userSpaceOnUse" />
    <linearGradient
       id="linearGradient7341">
      <stop
         style="stop-color:gray;stop-opacity:1"
         offset="0"
         id="stop7343" />
      <stop
         style="stop-color:gray;stop-opacity:0"
         offset="1"
         id="stop7345" />
    </linearGradient>
    <linearGradient
       x1="2.9193301"
       y1="200.81725"
       x2="67.882988"
       y2="137.17694"
       id="linearGradient10913"
       xlink:href="#linearGradient10907"
       gradientUnits="userSpaceOnUse" />
    <linearGradient
       id="linearGradient10907">
      <stop
         style="stop-color:gray;stop-opacity:1"
         offset="0"
         id="stop10909" />
      <stop
         style="stop-color:#666;stop-opacity:0"
         offset="1"
         id="stop10911" />
    </linearGradient>
    <linearGradient
       x1="55.508488"
       y1="119.27718"
       x2="78.843262"
       y2="206.95937"
       id="linearGradient11808"
       xlink:href="#linearGradient11802"
       gradientUnits="userSpaceOnUse" />
    <linearGradient
       id="linearGradient11802">
      <stop
         style="stop-color:#f2f2f2;stop-opacity:1"
         offset="0"
         id="stop11804" />
      <stop
         style="stop-color:#f2f2f2;stop-opacity:0"
         offset="1"
         id="stop11806" />
    </linearGradient>
  </defs>
  <metadata
     id="metadata5856">
    <rdf:RDF>
      <cc:Work
         rdf:about="">
        <dc:format>image/svg+xml</dc:format>
        <dc:type
           rdf:resource="http://purl.org/dc/dcmitype/StillImage" />
        <dc:title></dc:title>
      </cc:Work>
    </rdf:RDF>
  </metadata>
  <g
     transform="translate(-142.92681,137.72)"
     id="layer1">
    <g
       transform="matrix(2.3943995,0,0,2.3943995,146.47012,-134.17669)"
       id="g11896">
      <g
         transform="translate(11.22296,-1.773234)"
         id="g11844">
        <g
           id="g11840">
          <path
             d="m 2.36435,203.23804 c 1.61258,2.40258 0.66288,-6.02799 1.66105,-8.81641 1.64629,-4.59904 4.51491,-6.37798 6.2289,-10.20848 2.91599,-6.51679 9.60093,-10.7841 12.45781,-17.16879 1.53288,-3.42573 4.1526,-10.91406 4.1526,-14.84869 0,-9.42513 8.90044,-23.80047 14.11885,-31.08944 5.17959,-7.23474 12.01847,-12.25621 16.61042,-19.95292 6.14362,-10.29756 9.5028,-22.97462 16.19515,-32.94552 5.78117,-8.61337 8.93184,-19.72511 15.77989,-27.37728 1.70556,-1.90582 3.35185,-8.88294 4.56787,-11.600531 1.35014,-3.01737 2.6082,-6.55367 3.32208,-9.744458 0.98128,-4.386015 0.39568,-5.546378 3.32208,-8.816408 2.83068,-3.163068 3.77263,-6.37044 6.64417,-5.568258 0.39258,0.10967 3.66883,3.770764 4.1526,4.176193 3.33454,2.794569 6.61537,10.384179 9.13573,15.312711 2.94459,5.758141 11.0875,12.510061 15.77989,16.704771 5.22859,4.67404 3.42129,4.1762 9.13573,4.1762 4.2236,0 4.4527,1.32772 7.88994,3.24815 6.80052,3.79953 12.52612,15.05221 14.94937,22.27303 3.51135,10.46309 8.18102,22.04175 13.28833,31.55346 7.34442,13.67804 8.99851,5.26563 12.45781,24.59314 1.96366,10.97118 12.6755,23.90835 19.51724,31.55347 3.96709,4.43291 7.45847,6.47817 11.21203,10.67249 5.52311,6.17164 7.84208,15.39606 12.45781,22.27303 2.81404,4.19264 4.55986,7.41541 7.88994,11.13651 0.099,0.11061 1.39273,0 1.66105,0 -1.96669,2.19763 -3.41051,3.52957 -5.39839,4.64023 -1.74743,0.97631 -2.76288,1.39206 -5.39839,1.39206 -4.10727,0 -3.88353,0.61435 -8.3052,-1.85609 -2.30073,-1.28545 -4.66905,-1.4486 -7.05943,-2.78413 -1.9629,-1.0967 -6.03796,-2.61479 -8.30521,-3.24815 -2.51138,-0.70157 -4.61417,0 -7.05942,0 -5.37289,0 -9.9635,-0.92804 -15.36463,-0.92804 -5.25997,0 -10.51993,0 -15.77989,0 -10.53573,0 -18.82846,7.42435 -29.06822,7.42435 -5.79469,0 -10.04937,-5.10424 -15.36463,-5.10424 -4.82958,0 -5.54001,-3.71217 -10.38152,-3.71217 -5.81364,0 -11.62729,0 -17.44093,0 -4.22528,0 -7.81943,-2.1078 -12.04255,-0.92804 -4.56977,1.27658 -9.23938,2.00104 -13.70359,3.24814 -0.55368,0.15468 -1.10736,0.30935 -1.66104,0.46403 -4.43067,1.23773 -6.62147,3.71217 -11.62729,3.71217 -3.7222,0 -7.65049,1.85608 -10.79677,1.85608 -2.39835,0 -7.87506,0.0333 -9.13572,-2.78413 -0.65998,-1.47493 -3.82877,-6.00674 -5.39839,-5.56825 -3.11904,0.87132 -3.29586,-0.9134 -5.81364,-2.32011 -1.55181,-0.86702 -3.26217,-3.03288 -5.81365,-2.32011 -1.94879,0.54441 -4.14361,0.3455 -6.22891,0.92804 -1.82161,0.50888 -5.58631,-0.25403 -7.05942,1.39207 -1.65653,1.85105 -3.47195,3.09987 -5.39838,4.17619 -0.68787,0.38431 -3.64983,4.27399 -4.98313,2.78413 z"
             style="fill:#ffffff;fill-opacity:1;fill-rule:evenodd;stroke:none;stroke-width:1px;stroke-linecap:butt;stroke-linejoin:miter;stroke-opacity:1"
             id="path11810" />
          <path
             d="m 2.36435,203.23804 c 1.61258,2.40258 0.66288,-6.02799 1.66105,-8.81641 1.64629,-4.59904 4.51491,-6.37798 6.2289,-10.20848 2.91599,-6.51679 9.60093,-10.7841 12.45781,-17.16879 1.53288,-3.42573 4.1526,-10.91406 4.1526,-14.84869 0,-9.42513 8.90044,-23.80047 14.11885,-31.08944 5.17959,-7.23474 12.01847,-12.25621 16.61042,-19.95292 6.14362,-10.29756 9.5028,-22.97462 16.19515,-32.94552 5.78117,-8.61337 8.93184,-19.72511 15.77989,-27.37728 1.70556,-1.90582 3.35185,-8.88294 4.56787,-11.600531 1.35014,-3.01737 2.6082,-6.55367 3.32208,-9.744458 0.98128,-4.386015 0.39568,-5.546378 3.32208,-8.816408 2.83068,-3.163068 3.77263,-6.37044 6.64417,-5.568258 0.39258,0.10967 3.66883,3.770764 4.1526,4.176193 3.33454,2.794569 6.61537,10.384179 9.13573,15.312711 2.94459,5.758141 11.0875,12.510061 15.77989,16.704771 5.22859,4.67404 3.42129,4.1762 9.13573,4.1762 4.2236,0 4.4527,1.32772 7.88994,3.24815 6.80052,3.79953 12.52612,15.05221 14.94937,22.27303 3.51135,10.46309 8.18102,22.04175 13.28833,31.55346 7.34442,13.67804 8.99851,5.26563 12.45781,24.59314 1.96366,10.97118 12.6755,23.90835 19.51724,31.55347 3.96709,4.43291 7.45847,6.47817 11.21203,10.67249 5.52311,6.17164 7.84208,15.39606 12.45781,22.27303 2.81404,4.19264 4.55986,7.41541 7.88994,11.13651 0.099,0.11061 1.39273,0 1.66105,0 -1.96669,2.19763 -3.41051,3.52957 -5.39839,4.64023 -1.74743,0.97631 -2.76288,1.39206 -5.39839,1.39206 -4.10727,0 -3.88353,0.61435 -8.3052,-1.85609 -2.30073,-1.28545 -4.66905,-1.4486 -7.05943,-2.78413 -1.9629,-1.0967 -6.03796,-2.61479 -8.30521,-3.24815 -2.51138,-0.70157 -4.61417,0 -7.05942,0 -5.37289,0 -9.9635,-0.92804 -15.36463,-0.92804 -5.25997,0 -10.51993,0 -15.77989,0 -10.53573,0 -18.82846,7.42435 -29.06822,7.42435 -5.79469,0 -10.04937,-5.10424 -15.36463,-5.10424 -4.82958,0 -5.54001,-3.71217 -10.38152,-3.71217 -5.81364,0 -11.62729,0 -17.44093,0 -4.22528,0 -7.81943,-2.1078 -12.04255,-0.92804 -4.56977,1.27658 -9.23938,2.00104 -13.70359,3.24814 -0.55368,0.15468 -1.10736,0.30935 -1.66104,0.46403 -4.43067,1.23773 -6.62147,3.71217 -11.62729,3.71217 -3.7222,0 -7.65049,1.85608 -10.79677,1.85608 -2.39835,0 -7.87506,0.0333 -9.13572,-2.78413 -0.65998,-1.47493 -3.82877,-6.00674 -5.39839,-5.56825 -3.11904,0.87132 -3.29586,-0.9134 -5.81364,-2.32011 -1.55181,-0.86702 -3.26217,-3.03288 -5.81365,-2.32011 -1.94879,0.54441 -4.14361,0.3455 -6.22891,0.92804 -1.82161,0.50888 -5.58631,-0.25403 -7.05942,1.39207 -1.65653,1.85105 -3.47195,3.09987 -5.39838,4.17619 -0.68787,0.38431 -3.64983,4.27399 -4.98313,2.78413 z"
             style="fill:url(#linearGradient7347);fill-opacity:1;fill-rule:evenodd;stroke:none;stroke-width:1px;stroke-linecap:butt;stroke-linejoin:miter;stroke-opacity:1"
             id="path1874" />
        </g>
        <path
           d="m 82.09434,51.96703 c 1.87353,-1.04676 -0.10625,-4.86679 0.83052,-6.96033 1.03194,-2.30624 2.04737,-3.21582 3.73733,-5.10423 1.39435,-1.55808 1.22492,-4.12957 2.07631,-6.03228 0.96587,-2.15857 2.2054,-4.464711 2.90682,-6.032281 1.09087,-2.43792 2.49157,-3.01677 2.49157,-6.496302 0,-1.945413 2.0447,-4.963026 2.49155,-6.960322 0.83057,-3.712351 2.13005,-4.700264 4.15261,-6.960323 1.57772,-1.762981 2.12467,-2.838177 3.32208,-4.176193 1.74054,-1.944918 1.62918,-1.632976 4.1526,-0.928043 0.29811,0.083278 3.30009,4.54191 3.32209,4.640215 0.25966,1.160624 3.35077,3.744235 3.73734,4.176193 1.33157,1.487923 1.24579,2.392651 1.24579,5.568259 0,2.011264 3.29792,2.293119 4.56785,3.712172 1.46065,1.63216 2.32844,2.419564 3.32209,4.640214 0.94512,2.11221 2.71032,4.42064 4.1526,6.032281 1.51875,1.6971 3.41365,3.90492 5.39839,5.56826 1.59394,1.33584 2.91337,2.32742 4.56786,4.17619 1.69359,1.89246 3.96685,1.39206 6.2289,1.39206 2.50562,0 2.27625,1.85609 5.39839,1.85609 2.19868,0 4.11113,-0.01158 5.81364,0.46403 0.48554,0.13563 4.05941,6.20276 4.56787,6.96032 1.83893,2.73981 3.38507,4.31698 4.56786,6.96032 0.98075,2.19181 0.68614,4.4589 1.24578,6.96032 0.47701,2.1321 2.19198,3.4205 3.32208,5.10424 2.46426,3.67148 2.69155,8.49566 5.39839,12.52858 1.74678,2.60252 6.2289,10.17594 6.2289,12.9926 0,3.32888 1.46686,3.7723 2.07631,6.4963 0.79695,3.56212 -0.29238,2.45743 2.0763,5.10424 1.19713,1.33771 3.21046,4.60903 0,3.71217 -2.04647,-0.5717 -2.86795,-1.83436 -4.56787,-2.78413 -2.23991,-1.25146 -3.60817,-2.67588 -5.39838,-4.1762 -2.56338,-2.14827 -4.41375,-3.351 -7.05943,-5.56825 -3.06442,-2.56819 -4.13617,-11.06307 -4.98312,-14.84869 -0.57443,-2.56755 -6.71613,-5.28054 -8.72047,-6.96032 -3.25184,-2.72526 -5.63645,-3.54667 -9.55098,-4.64022 -3.82305,-1.06799 -6.29747,-1.85608 -10.38152,-1.85608 -2.0763,0 -4.1526,0 -6.2289,0 -2.68619,0 -4.58303,-3.26509 -6.22891,-5.10424 -2.49537,-2.78839 -2.90682,-8.27652 -2.90682,-12.06456 0,-3.07788 -0.0753,-7.42434 -3.32208,-7.42434 -2.54,0 -4.44048,-0.07117 -6.2289,0.92805 -3.0583,1.7087 -3.55861,7.39055 -5.81365,9.28042 -1.94629,1.63113 -2.50351,2.73071 -3.32208,-0.92804 -0.55335,-2.47327 -2.39483,-3.97911 -3.73734,-5.10424 -1.41566,-1.18641 -3.9992,-1.61151 -5.39839,-2.78413 -1.6474,-1.38063 -3.14936,2.59113 -4.1526,3.71217 -1.53054,1.71027 -3.30281,1.51346 -5.39838,0.92805 z"
           style="fill:#f9f9f9;fill-rule:evenodd;stroke:none;stroke-width:1px;stroke-linecap:butt;stroke-linejoin:miter;stroke-opacity:1"
           id="path2762" />
      </g>
      <g
         transform="translate(-1.151544,1.055224)"
         id="g11850">
        <g
           id="g11836">
          <path
             d="m 144.95847,207.17154 c -0.12573,-1.25563 -2.02851,-3.07136 -2.4749,-5.30336 -0.4992,-2.49598 -1.96544,-3.97261 -2.47491,-6.01047 -0.76774,-3.07097 -1.19452,-5.59506 -2.12134,-8.83893 -1.45563,-5.0947 -2.48472,-8.6867 -4.24269,-13.08162 -2.25547,-5.63868 -6.42147,-3.59301 -9.54604,-6.71759 -1.64289,-1.64289 -3.17111,-3.1711 -4.9498,-4.9498 -1.64467,-1.64466 -2.88637,-3.94704 -3.88913,-4.9498 -1.97234,-1.97234 -4.45199,-4.87531 -6.36403,-7.4247 -1.72759,-2.30345 -2.93625,-4.70403 -4.59625,-6.36403 -2.31707,-2.31707 -3.48758,-5.56093 -4.949797,-8.48537 -2.752549,-5.5051 -6.593289,-11.00309 -8.838931,-16.61719 -1.246275,-3.11569 -2.474901,-4.98588 -2.474901,-8.13182 0,-1.8864 -2.192203,-3.39435 -2.828458,-4.24269 -0.35304,-0.47072 -4.909929,-2.52169 -6.010473,-3.18201 -3.521025,-2.11262 -7.138248,-3.507194 -9.546045,-6.717589 -1.28898,-1.71864 -2.352017,-2.936248 -3.182015,-4.596244 -1.027958,-2.055916 -1.74681,-3.166283 -3.182015,-4.242687 -2.040946,-1.530709 -2.432853,-2.121344 -4.949801,-2.121344 -1.756885,0 -2.90639,4.398551 -3.535573,5.656916 -2.204414,4.408828 -1.434141,8.333486 -4.949801,12.728058 -3.084622,3.85578 -3.729073,6.58954 -7.424702,9.54605 -3.045819,2.43665 -5.372893,2.96752 -7.071145,6.36403 -1.901515,3.80303 -3.935647,7.87129 -6.010473,12.02094 -1.598659,3.19732 -2.772065,5.24697 -5.303358,7.77826 -2.870307,2.87031 -2.342385,7.2482 -3.182015,10.60672 -0.710147,2.84059 -5.648189,9.8647 -7.071145,15.55652 -0.724262,2.89705 -1.805236,6.43893 -3.182015,9.19249 -1.2361087,2.47221 -1.8325032,5.20867 -2.4749006,7.77826 -0.5579018,2.2316 -2.3268918,-2.35983 -3.8891296,3.88913 -0.9070276,3.62811 -2.0272376,7.04827 -2.8284579,10.25316 -0.51051765,2.04207 -0.3944814,4.49762 1.414229,4.9498 3.6998998,0.92497 1.3330901,1.96485 0.7071144,2.12134 -2.2780815,0.56952 4.7040289,-0.91321 6.7175877,-2.12134 0.451943,-0.27117 0.942819,-0.47141 1.414229,-0.70712 1.973819,-0.98691 4.309526,-1.96127 6.36403,-2.4749 1.977839,-0.49446 2.786659,-0.70711 5.303358,-0.70711 1.104604,0 4.046111,1.44562 5.656916,1.76778 2.018126,0.40363 2.97608,0.90622 4.596244,2.12135 1.186306,0.88973 1.379225,2.42823 2.474901,3.88913 1.421116,1.89482 3.719386,2.60924 6.010473,3.18201 2.39511,0.59878 4.698384,0.82104 7.071144,1.41423 1.991844,0.49796 4.241576,0.35356 6.364031,0.35356 2.305144,0 3.049388,-1.17114 4.949801,-2.12135 2.18862,-1.09431 2.514904,-2.82845 5.656916,-2.82845 2.412963,0 5.019053,0.70711 7.778259,0.70711 2.584599,0 5.175747,-2.05754 7.424702,-3.18201 2.597554,-1.29878 5.359364,-1.75379 8.131816,-1.06068 2.485466,0.62137 4.891418,-0.70711 7.778259,-0.70711 3.165661,0 5.799641,-1.69642 8.485371,-0.35356 3.18356,1.59178 4.65132,0.54366 7.77826,-0.70711 2.22279,-0.88912 5.44337,0.49356 6.71759,1.76778 1.52304,1.52304 4.65583,2.69896 7.07114,3.18202 2.42689,0.48538 3.37267,1.76778 6.36403,1.76778 2.4749,0 4.94981,0 7.42471,0 1.40528,0 2.46429,0.0686 3.88913,0.35356 z"
             style="fill:#b3b3b3;fill-rule:evenodd;stroke:none;stroke-width:1px;stroke-linecap:butt;stroke-linejoin:miter;stroke-opacity:1"
             id="path6452" />
          <path
             d="m 144.95847,207.17154 c -0.12573,-1.25563 -2.02851,-3.07136 -2.4749,-5.30336 -0.4992,-2.49598 -1.96544,-3.97261 -2.47491,-6.01047 -0.76774,-3.07097 -1.19452,-5.59506 -2.12134,-8.83893 -1.45563,-5.0947 -2.48472,-8.6867 -4.24269,-13.08162 -2.25547,-5.63868 -6.42147,-3.59301 -9.54604,-6.71759 -1.64289,-1.64289 -3.17111,-3.1711 -4.9498,-4.9498 -1.64467,-1.64466 -2.88637,-3.94704 -3.88913,-4.9498 -1.97234,-1.97234 -4.45199,-4.87531 -6.36403,-7.4247 -1.72759,-2.30345 -2.93625,-4.70403 -4.59625,-6.36403 -2.31707,-2.31707 -3.48758,-5.56093 -4.949797,-8.48537 -2.752549,-5.5051 -6.593289,-11.00309 -8.838931,-16.61719 -1.246275,-3.11569 -2.474901,-4.98588 -2.474901,-8.13182 0,-1.8864 -2.192203,-3.39435 -2.828458,-4.24269 -0.35304,-0.47072 -4.909929,-2.52169 -6.010473,-3.18201 -3.521025,-2.11262 -7.138248,-3.507194 -9.546045,-6.717589 -1.28898,-1.71864 -2.352017,-2.936248 -3.182015,-4.596244 -1.027958,-2.055916 -1.74681,-3.166283 -3.182015,-4.242687 -2.040946,-1.530709 -2.432853,-2.121344 -4.949801,-2.121344 -1.756885,0 -2.90639,4.398551 -3.535573,5.656916 -2.204414,4.408828 -1.434141,8.333486 -4.949801,12.728058 -3.084622,3.85578 -3.729073,6.58954 -7.424702,9.54605 -3.045819,2.43665 -5.372893,2.96752 -7.071145,6.36403 -1.901515,3.80303 -3.935647,7.87129 -6.010473,12.02094 -1.598659,3.19732 -2.772065,5.24697 -5.303358,7.77826 -2.870307,2.87031 -2.342385,7.2482 -3.182015,10.60672 -0.710147,2.84059 -5.648189,9.8647 -7.071145,15.55652 -0.724262,2.89705 -1.805236,6.43893 -3.182015,9.19249 -1.2361087,2.47221 -1.8325032,5.20867 -2.4749006,7.77826 -0.5579018,2.2316 -2.3268918,-2.35983 -3.8891296,3.88913 -0.9070276,3.62811 -2.0272376,7.04827 -2.8284579,10.25316 -0.51051765,2.04207 -0.3944814,4.49762 1.414229,4.9498 3.6998998,0.92497 1.3330901,1.96485 0.7071144,2.12134 -2.2780815,0.56952 4.7040289,-0.91321 6.7175877,-2.12134 0.451943,-0.27117 0.942819,-0.47141 1.414229,-0.70712 1.973819,-0.98691 4.309526,-1.96127 6.36403,-2.4749 1.977839,-0.49446 2.786659,-0.70711 5.303358,-0.70711 1.104604,0 4.046111,1.44562 5.656916,1.76778 2.018126,0.40363 2.97608,0.90622 4.596244,2.12135 1.186306,0.88973 1.379225,2.42823 2.474901,3.88913 1.421116,1.89482 3.719386,2.60924 6.010473,3.18201 2.39511,0.59878 4.698384,0.82104 7.071144,1.41423 1.991844,0.49796 4.241576,0.35356 6.364031,0.35356 2.305144,0 3.049388,-1.17114 4.949801,-2.12135 2.18862,-1.09431 2.514904,-2.82845 5.656916,-2.82845 2.412963,0 5.019053,0.70711 7.778259,0.70711 2.584599,0 5.175747,-2.05754 7.424702,-3.18201 2.597554,-1.29878 5.359364,-1.75379 8.131816,-1.06068 2.485466,0.62137 4.891418,-0.70711 7.778259,-0.70711 3.165661,0 5.799641,-1.69642 8.485371,-0.35356 3.18356,1.59178 4.65132,0.54366 7.77826,-0.70711 2.22279,-0.88912 5.44337,0.49356 6.71759,1.76778 1.52304,1.52304 4.65583,2.69896 7.07114,3.18202 2.42689,0.48538 3.37267,1.76778 6.36403,1.76778 2.4749,0 4.94981,0 7.42471,0 1.40528,0 2.46429,0.0686 3.88913,0.35356 z"
             style="fill:url(#linearGradient10913);fill-opacity:1;fill-rule:evenodd;stroke:none;stroke-width:1px;stroke-linecap:butt;stroke-linejoin:miter;stroke-opacity:1"
             id="path9127" />
        </g>
        <path
           d="m 28.284579,133.27808 c 0,-0.79332 0,-3.79024 0,-5.65692 0,-2.27926 1.173489,-1.99342 2.121343,-3.88913 0.81675,-1.63349 1.640392,-2.15641 2.474901,-4.24268 0.664366,-1.66092 1.916817,-2.37264 3.535572,-3.18202 1.729287,-0.86464 3.442366,-2.35062 4.596244,-3.88913 1.591664,-2.12222 2.462214,-3.98583 3.88913,-6.36403 1.452896,-2.42149 2.671796,-4.97662 4.242686,-7.071141 1.912787,-2.550383 2.951972,-6.964615 4.596245,-10.25316 0.636373,-1.272748 0.634555,-3.390455 1.414228,-4.949801 0.418962,-0.837924 4.052404,-0.353558 4.949802,-0.353558 1.811629,0 3.120896,1.030113 4.596244,1.767786 1.869771,0.934886 2.4749,0.79885 2.4749,3.182016 0,1.962255 1.844366,3.965709 2.828458,4.949801 1.238804,1.238804 2.357962,2.121343 4.596244,2.121343 0.990569,0 3.696035,3.262246 4.242687,3.535573 1.626781,0.81339 3.88913,1.359231 3.88913,3.182011 0,1.6914 -1.576896,3.34469 -2.474901,4.24269 -2.008382,2.00838 -3.360513,4.06763 -5.303358,6.01047 -1.598691,1.59869 -2.730496,4.10644 -3.182016,6.36403 -0.484035,2.42018 -1.885665,4.36065 -2.4749,6.71759 -0.435293,1.74117 0,4.18987 0,6.01047 0,2.31571 3.43198,3.48378 4.949801,4.24269 1.328404,0.6642 2.566347,3.19424 2.828458,4.24269 0.355595,1.42238 -1.170775,2.01124 0.353557,3.53557 1.359141,1.35914 1.994398,3.38135 2.474901,5.30336 0.778898,3.11559 -0.742729,0.35356 -3.535573,0.35356 -1.063122,0 -4.555247,-2.26738 -5.303358,-2.82846 -2.462696,-1.84702 -4.26218,-2.76555 -7.071145,-3.88913 -2.234552,-0.89382 -2.692772,-4.0535 -3.182015,-6.01047 -0.600735,-2.40295 0.521634,-3.72106 -1.060671,-5.30336 -1.303904,-1.30391 -2.425278,-3.15721 -3.88913,-3.88913 -2.183736,-1.09187 -2.771698,-2.09297 -4.242687,-2.82846 -1.178306,-0.58915 -3.671359,-0.35356 -4.949801,-0.35356 -2.954727,0 -2.619721,0.7241 -3.182015,3.53557 -0.559529,2.79765 -2.638939,2.47491 -4.949802,2.47491 -2.052674,0 -3.11855,2.4749 -5.656915,2.4749 -1.91536,0 -2.416561,0.27117 -4.596244,0.70711 z"
           style="fill:url(#linearGradient11808);fill-opacity:1;fill-rule:evenodd;stroke:none;stroke-width:1px;stroke-linecap:butt;stroke-linejoin:miter;stroke-opacity:1"
           id="path10915" />
      </g>
    </g>
  </g>
</svg>
