<?xml version="1.0" encoding="UTF-8" standalone="no"?>
<!-- Created with Inkscape (http://www.inkscape.org/) -->

<svg
   xmlns:dc="http://purl.org/dc/elements/1.1/"
   xmlns:cc="http://creativecommons.org/ns#"
   xmlns:rdf="http://www.w3.org/1999/02/22-rdf-syntax-ns#"
   xmlns:svg="http://www.w3.org/2000/svg"
   xmlns="http://www.w3.org/2000/svg"
   xmlns:xlink="http://www.w3.org/1999/xlink"
   xmlns:sodipodi="http://sodipodi.sourceforge.net/DTD/sodipodi-0.dtd"
   xmlns:inkscape="http://www.inkscape.org/namespaces/inkscape"
   width="152.28397mm"
   height="323.5737mm"
   viewBox="0 0 539.58886 1146.521"
   id="svg4877"
   version="1.1"
   inkscape:version="0.91 r13725"
   sodipodi:docname="signs.svg">
  <defs
     id="defs4879">
    <filter
       inkscape:collect="always"
       style="color-interpolation-filters:sRGB"
       id="filter4405"
       x="-0.063758351"
       width="1.1275167"
       y="-0.12307232"
       height="1.2461447">
      <feGaussianBlur
         inkscape:collect="always"
         stdDeviation="11.373089"
         id="feGaussianBlur4407" />
    </filter>
    <linearGradient
       inkscape:collect="always"
       xlink:href="#linearGradient4648"
       id="linearGradient4654"
       x1="1030.8416"
       y1="445.6442"
       x2="1072.2579"
       y2="445.6442"
       gradientUnits="userSpaceOnUse"
       gradientTransform="matrix(1,0,0,1.4076921,0,-91.10187)" />
    <linearGradient
       inkscape:collect="always"
       id="linearGradient4648">
      <stop
         style="stop-color:#835e00;stop-opacity:1"
         offset="0"
         id="stop4650" />
      <stop
         id="stop4660"
         offset="0.37804845"
         style="stop-color:#be8b03;stop-opacity:1" />
      <stop
         id="stop4658"
         offset="0.70198119"
         style="stop-color:#be8b03;stop-opacity:1" />
      <stop
         style="stop-color:#835e00;stop-opacity:1"
         offset="1"
         id="stop4652" />
    </linearGradient>
    <linearGradient
       inkscape:collect="always"
       xlink:href="#linearGradient4734"
       id="linearGradient4744"
       x1="1052.479"
       y1="244.87637"
       x2="1052.479"
       y2="232.50417"
       gradientUnits="userSpaceOnUse" />
    <linearGradient
       inkscape:collect="always"
       id="linearGradient4734">
      <stop
         style="stop-color:#000000;stop-opacity:1;"
         offset="0"
         id="stop4736" />
      <stop
         style="stop-color:#000000;stop-opacity:0;"
         offset="1"
         id="stop4738" />
    </linearGradient>
    <filter
       inkscape:collect="always"
       style="color-interpolation-filters:sRGB"
       id="filter4730"
       x="-0.0089189187"
       width="1.0178378"
       y="-0.018333334"
       height="1.0366668">
      <feGaussianBlur
         inkscape:collect="always"
         stdDeviation="0.13889597"
         id="feGaussianBlur4732" />
    </filter>
    <linearGradient
       inkscape:collect="always"
       xlink:href="#linearGradient4607"
       id="linearGradient4613"
       x1="933.24316"
       y1="331.67163"
       x2="933.24316"
       y2="238.73758"
       gradientUnits="userSpaceOnUse"
       gradientTransform="translate(10.101525,4.0406102)" />
    <linearGradient
       inkscape:collect="always"
       id="linearGradient4607">
      <stop
         style="stop-color:#835e00;stop-opacity:1"
         offset="0"
         id="stop4609" />
      <stop
         style="stop-color:#be8b03;stop-opacity:1"
         offset="1"
         id="stop4611" />
    </linearGradient>
    <filter
       inkscape:collect="always"
       style="color-interpolation-filters:sRGB"
       id="filter4819"
       x="-0.0027569972"
       width="1.005514"
       y="-0.018534575"
       height="1.0370691">
      <feGaussianBlur
         inkscape:collect="always"
         stdDeviation="0.212677"
         id="feGaussianBlur4821" />
    </filter>
    <linearGradient
       inkscape:collect="always"
       xlink:href="#linearGradient4607"
       id="linearGradient4642"
       gradientUnits="userSpaceOnUse"
       x1="933.24316"
       y1="331.67163"
       x2="933.24316"
       y2="238.73758"
       gradientTransform="translate(8,224)" />
    <filter
       inkscape:collect="always"
       style="color-interpolation-filters:sRGB"
       id="filter4795"
       x="-0.0026029805"
       width="1.005206"
       y="-0.030777128"
       height="1.0615543">
      <feGaussianBlur
         inkscape:collect="always"
         stdDeviation="0.35315552"
         id="feGaussianBlur4797" />
    </filter>
    <linearGradient
       inkscape:collect="always"
       xlink:href="#linearGradient4607"
       id="linearGradient4646"
       gradientUnits="userSpaceOnUse"
       gradientTransform="translate(22,500)"
       x1="933.24316"
       y1="331.67163"
       x2="933.24316"
       y2="238.73758" />
    <filter
       inkscape:collect="always"
       style="color-interpolation-filters:sRGB"
       id="filter4815"
       x="-0.0026278789"
       width="1.0052558"
       y="-0.027676595"
       height="1.0553532">
      <feGaussianBlur
         inkscape:collect="always"
         stdDeviation="0.31757812"
         id="feGaussianBlur4817" />
    </filter>
    <linearGradient
       inkscape:collect="always"
       xlink:href="#linearGradient4734"
       id="linearGradient5603"
       gradientUnits="userSpaceOnUse"
       x1="1052.479"
       y1="244.87637"
       x2="1052.479"
       y2="232.50417" />
    <linearGradient
       inkscape:collect="always"
       xlink:href="#linearGradient4734"
       id="linearGradient5605"
       gradientUnits="userSpaceOnUse"
       x1="1052.479"
       y1="244.87637"
       x2="1052.479"
       y2="232.50417" />
    <linearGradient
       inkscape:collect="always"
       xlink:href="#linearGradient4734"
       id="linearGradient5607"
       gradientUnits="userSpaceOnUse"
       x1="1052.479"
       y1="244.87637"
       x2="1052.479"
       y2="232.50417" />
    <linearGradient
       inkscape:collect="always"
       xlink:href="#linearGradient4734"
       id="linearGradient5609"
       gradientUnits="userSpaceOnUse"
       x1="1052.479"
       y1="244.87637"
       x2="1052.479"
       y2="232.50417" />
    <linearGradient
       inkscape:collect="always"
       xlink:href="#linearGradient4734"
       id="linearGradient5611"
       gradientUnits="userSpaceOnUse"
       x1="1052.479"
       y1="244.87637"
       x2="1052.479"
       y2="232.50417" />
  </defs>
  <sodipodi:namedview
     id="base"
     pagecolor="#ffffff"
     bordercolor="#666666"
     borderopacity="1.0"
     inkscape:pageopacity="0.0"
     inkscape:pageshadow="2"
     inkscape:zoom="0.7"
     inkscape:cx="-46.634149"
     inkscape:cy="690.40333"
     inkscape:document-units="px"
     inkscape:current-layer="g5003"
     showgrid="false"
     fit-margin-top="1"
     fit-margin-left="1"
     fit-margin-right="1"
     fit-margin-bottom="1"
     inkscape:window-width="1920"
     inkscape:window-height="1013"
     inkscape:window-x="-6"
     inkscape:window-y="0"
     inkscape:window-maximized="1" />
  <metadata
     id="metadata4882">
    <rdf:RDF>
      <cc:Work
         rdf:about="">
        <dc:format>image/svg+xml</dc:format>
        <dc:type
           rdf:resource="http://purl.org/dc/dcmitype/StillImage" />
        <dc:title></dc:title>
      </cc:Work>
    </rdf:RDF>
  </metadata>
  <g
     inkscape:label="Layer 1"
     inkscape:groupmode="layer"
     id="layer1"
     transform="translate(124.08014,-304.81602)">
    <g
       transform="translate(-779.10329,84.901808)"
       id="g5003">
      <rect
         y="351.31635"
         x="714.17786"
         height="6.0609155"
         width="6.0609155"
         id="rect5153"
         style="color:#000000;clip-rule:nonzero;display:inline;overflow:visible;visibility:visible;opacity:1;isolation:auto;mix-blend-mode:normal;color-interpolation:sRGB;color-interpolation-filters:linearRGB;solid-color:#000000;solid-opacity:1;fill:#92bede;fill-opacity:1;fill-rule:nonzero;stroke:none;stroke-width:0.40751261;stroke-linecap:butt;stroke-linejoin:miter;stroke-miterlimit:4;stroke-dasharray:none;stroke-dashoffset:0;stroke-opacity:1;marker:none;filter:url(#filter4405);color-rendering:auto;image-rendering:auto;shape-rendering:auto;text-rendering:auto;enable-background:accumulate" />
      <rect
         y="223.45752"
         x="1030.6094"
         height="1139.4343"
         width="39.698067"
         id="rect4591"
         style="color:#000000;clip-rule:nonzero;display:inline;overflow:visible;visibility:visible;opacity:1;isolation:auto;mix-blend-mode:normal;color-interpolation:sRGB;color-interpolation-filters:linearRGB;solid-color:#000000;solid-opacity:1;fill:url(#linearGradient4654);fill-opacity:1;fill-rule:nonzero;stroke:none;stroke-width:0.81220877;stroke-linecap:round;stroke-linejoin:miter;stroke-miterlimit:4;stroke-dasharray:none;stroke-dashoffset:0;stroke-opacity:1;marker:none;color-rendering:auto;image-rendering:auto;shape-rendering:auto;text-rendering:auto;enable-background:accumulate" />
      <g
         id="g4750">
        <rect
           style="color:#000000;clip-rule:nonzero;display:inline;overflow:visible;visibility:visible;opacity:0.22099998;isolation:auto;mix-blend-mode:normal;color-interpolation:sRGB;color-interpolation-filters:linearRGB;solid-color:#000000;solid-opacity:1;fill:url(#linearGradient5603);fill-opacity:1;fill-rule:evenodd;stroke:none;stroke-width:1.98859394px;stroke-linecap:butt;stroke-linejoin:miter;stroke-miterlimit:4;stroke-dasharray:none;stroke-dashoffset:0;stroke-opacity:1;marker:none;filter:url(#filter4730);color-rendering:auto;image-rendering:auto;shape-rendering:auto;text-rendering:auto;enable-background:accumulate"
           id="rect4724"
           width="37.375645"
           height="18.182745"
           x="1031.8517"
           y="231.99693"
           transform="matrix(1.0535847,0,0,0.99904812,-56.292847,0.22948815)" />
        <rect
           transform="matrix(1.050292,0,0,-1.3954459,-52.833756,684.71642)"
           y="231.99693"
           x="1031.8517"
           height="18.182745"
           width="37.375645"
           id="rect4746"
           style="color:#000000;clip-rule:nonzero;display:inline;overflow:visible;visibility:visible;opacity:0.50199998;isolation:auto;mix-blend-mode:normal;color-interpolation:sRGB;color-interpolation-filters:linearRGB;solid-color:#000000;solid-opacity:1;fill:url(#linearGradient5605);fill-opacity:1;fill-rule:evenodd;stroke:none;stroke-width:1.98859394px;stroke-linecap:butt;stroke-linejoin:miter;stroke-miterlimit:4;stroke-dasharray:none;stroke-dashoffset:0;stroke-opacity:1;marker:none;filter:url(#filter4730);color-rendering:auto;image-rendering:auto;shape-rendering:auto;text-rendering:auto;enable-background:accumulate" />
      </g>
      <path
         sodipodi:nodetypes="cccccc"
         inkscape:connector-curvature="0"
         id="path4593"
         d="m 1090.827,237.43881 -358.98787,2.02031 -73.27267,47.91544 76.0436,49.63647 353.76294,5.05077 z"
         style="opacity:1;fill:url(#linearGradient4613);fill-opacity:1;fill-rule:evenodd;stroke:none;stroke-width:1.98859394px;stroke-linecap:butt;stroke-linejoin:miter;stroke-opacity:1" />
      <g
         transform="translate(1268.53,122.13109)"
         style="font-style:normal;font-variant:normal;font-weight:normal;font-stretch:normal;font-size:22.09246063px;line-height:125%;font-family:Arial;-inkscape-font-specification:Arial;text-align:center;letter-spacing:0px;word-spacing:0px;writing-mode:tb-rl;text-anchor:middle;fill:#000000;fill-opacity:1;stroke:none;stroke-width:1px;stroke-linecap:butt;stroke-linejoin:miter;stroke-opacity:1;filter:url(#filter4819)"
         id="flowRoot5198">
        <path
           d="m -416.96582,178.41849 0,-11.1145 q 0,-1.15357 -0.18311,-2.10571 -0.1831,-0.97046 -0.60424,-1.64795 -0.42115,-0.6958 -1.09864,-1.08033 -0.67749,-0.38452 -1.64795,-0.38452 -0.93383,0 -1.70288,0.42115 -0.75073,0.40283 -1.30005,1.17187 -0.54931,0.75073 -0.86059,1.81275 -0.29297,1.0437 -0.29297,2.30712 l 0,10.62012 -5.14526,0 0,-15.38086 q 0,-0.64087 -0.0183,-1.31836 0,-0.67749 -0.0366,-1.28174 -0.0183,-0.62255 -0.0366,-1.09863 -0.0183,-0.49438 -0.0549,-0.73242 l 4.90723,0 q 0.0366,0.21973 0.0732,0.71411 0.0366,0.47608 0.0732,1.06201 0.0366,0.58594 0.0549,1.17188 0.0366,0.58594 0.0366,0.98877 l 0.0732,0 q 1.0437,-2.27051 2.61841,-3.2959 1.5747,-1.02539 3.75366,-1.02539 1.79443,0 3.02124,0.58594 1.24512,0.58593 2.01416,1.61132 0.78735,1.02539 1.13525,2.417 0.3479,1.3916 0.3479,3.00293 l 0,12.57934 -5.12695,0 z"
           style="font-style:normal;font-variant:normal;font-weight:bold;font-stretch:normal;font-size:37.5px;line-height:125%;font-family:'Liberation Sans';-inkscape-font-specification:'Liberation Sans Bold';text-align:center;writing-mode:lr-tb;text-anchor:middle;fill:#000000;fill-opacity:1"
           id="path5614" />
        <path
           d="m -390.17749,172.63236 q 0,1.42822 -0.60425,2.56347 -0.58594,1.13526 -1.72119,1.94092 -1.13525,0.78736 -2.7832,1.22681 -1.64795,0.42114 -3.75366,0.42114 -1.88599,0 -3.40577,-0.27466 -1.51977,-0.27465 -2.67334,-0.89721 -1.13525,-0.64087 -1.90429,-1.64795 -0.76905,-1.00708 -1.15357,-2.49024 l 4.52271,-0.67749 q 0.21972,0.82398 0.60425,1.33667 0.38452,0.5127 0.95214,0.78736 0.56763,0.27465 1.31836,0.36621 0.76905,0.0916 1.73951,0.0916 0.8789,0 1.62963,-0.0916 0.76905,-0.10987 1.31836,-0.3479 0.56763,-0.25635 0.87891,-0.6958 0.31128,-0.45777 0.31128,-1.13526 0,-0.76904 -0.45776,-1.20849 -0.43946,-0.45777 -1.22681,-0.73243 -0.76904,-0.29296 -1.83106,-0.49438 -1.0437,-0.21973 -2.23388,-0.49438 -1.24512,-0.27466 -2.45362,-0.65918 -1.20849,-0.38453 -2.16064,-1.04371 -0.95215,-0.65918 -1.53809,-1.66626 -0.58593,-1.02539 -0.58593,-2.58178 0,-1.40991 0.54931,-2.50855 0.54932,-1.11694 1.61133,-1.88598 1.06201,-0.78736 2.61841,-1.19019 1.57471,-0.42114 3.60718,-0.42114 1.61132,0 3.00293,0.31128 1.3916,0.29297 2.49023,0.95215 1.09863,0.64086 1.83105,1.64794 0.75074,1.00709 1.04371,2.43531 l -4.55933,0.47607 q -0.12817,-0.71411 -0.45776,-1.17187 -0.32959,-0.47608 -0.82398,-0.75074 -0.47607,-0.27465 -1.11694,-0.36621 -0.64087,-0.10986 -1.40991,-0.10986 -1.83106,0 -2.74659,0.47607 -0.91552,0.45777 -0.91552,1.5564 0,0.67749 0.36621,1.08032 0.38452,0.40284 1.06201,0.67749 0.6958,0.25635 1.62964,0.45777 0.95215,0.1831 2.06909,0.45776 1.37329,0.29297 2.69165,0.6958 1.33667,0.38452 2.36206,1.08032 1.0437,0.67749 1.66626,1.75782 0.64087,1.08032 0.64087,2.74658 z"
           style="font-style:normal;font-variant:normal;font-weight:bold;font-stretch:normal;font-size:37.5px;line-height:125%;font-family:'Liberation Sans';-inkscape-font-specification:'Liberation Sans Bold';text-align:center;writing-mode:lr-tb;text-anchor:middle;fill:#000000;fill-opacity:1"
           id="path5616" />
        <path
           d="m -377.89111,178.7847 q -2.14234,0 -3.86353,-0.62256 -1.70288,-0.64087 -2.91138,-1.9226 -1.20849,-1.30005 -1.84936,-3.24097 -0.64087,-1.95923 -0.64087,-4.57764 0,-2.83813 0.75073,-4.77905 0.76905,-1.94092 2.05078,-3.1311 1.30005,-1.2085 2.98462,-1.73951 1.68457,-0.531 3.55225,-0.531 2.34375,0 3.9917,0.82397 1.66626,0.80567 2.72827,2.27051 1.06201,1.46484 1.5564,3.51563 0.49438,2.03247 0.49438,4.50439 l 0,0.14648 -12.70752,0 q 0,1.24512 0.21973,2.32544 0.21972,1.06202 0.71411,1.84937 0.49438,0.76904 1.28174,1.22681 0.78735,0.43945 1.90429,0.43945 1.35498,0 2.21558,-0.56763 0.8606,-0.58594 1.22681,-1.79443 l 4.85229,0.42114 q -0.32959,0.84229 -0.93384,1.79443 -0.58593,0.95215 -1.5747,1.75782 -0.98877,0.78735 -2.47193,1.31836 -1.46484,0.51269 -3.57055,0.51269 z m 0,-17.30346 q -0.78736,0 -1.48316,0.27465 -0.67749,0.25635 -1.19018,0.84229 -0.49439,0.56763 -0.80567,1.48315 -0.31128,0.91553 -0.3479,2.19727 l 7.69043,0 q -0.14648,-2.39868 -1.15356,-3.58887 -1.00708,-1.20849 -2.70996,-1.20849 z"
           style="font-style:normal;font-variant:normal;font-weight:bold;font-stretch:normal;font-size:37.5px;line-height:125%;font-family:'Liberation Sans';-inkscape-font-specification:'Liberation Sans Bold';text-align:center;writing-mode:lr-tb;text-anchor:middle;fill:#000000;fill-opacity:1"
           id="path5618" />
        <path
           d="m -365.12866,178.41849 0,-15.16113 q 0,-0.64087 -0.0183,-1.35498 0,-0.71411 -0.0366,-1.35498 -0.0183,-0.65918 -0.0366,-1.17188 -0.0183,-0.531 -0.0549,-0.76904 l 4.90723,0 q 0.0366,0.21973 0.0732,0.76904 0.0366,0.53101 0.0732,1.17188 0.0366,0.64087 0.0549,1.28174 0.0366,0.62255 0.0366,1.00708 l 0.0732,0 q 0.38452,-1.08033 0.76904,-1.92261 0.38452,-0.8606 0.89722,-1.44653 0.53101,-0.60425 1.26343,-0.91553 0.73242,-0.32959 1.81274,-0.32959 0.45776,0 0.89722,0.0916 0.45776,0.0732 0.6958,0.18311 l 0,4.30297 q -0.49439,-0.10986 -1.00708,-0.1831 -0.49439,-0.0916 -1.19019,-0.0916 -1.9226,0 -3.00293,1.55639 -1.06201,1.5564 -1.06201,4.61426 l 0,9.7229 -5.14526,0 z"
           style="font-style:normal;font-variant:normal;font-weight:bold;font-stretch:normal;font-size:37.5px;line-height:125%;font-family:'Liberation Sans';-inkscape-font-specification:'Liberation Sans Bold';text-align:center;writing-mode:lr-tb;text-anchor:middle;fill:#000000;fill-opacity:1"
           id="path5620" />
        <path
           d="m -320.94531,178.41849 -20.70923,0 0,-3.8269 13.95264,-17.74292 -12.56104,0 0,-4.22974 18.5669,0 0,3.75366 -13.95264,17.81616 14.70337,0 0,4.22974 z"
           style="font-style:normal;font-variant:normal;font-weight:bold;font-stretch:normal;font-size:37.5px;line-height:125%;font-family:'Liberation Sans';-inkscape-font-specification:'Liberation Sans Bold';text-align:center;writing-mode:lr-tb;text-anchor:middle;fill:#000000;fill-opacity:1"
           id="path5622" />
        <path
           d="m -317.22827,155.03592 0,-3.79028 5.14526,0 0,3.79028 -5.14526,0 z m 0,23.38257 0,-19.81201 5.14526,0 0,19.81201 -5.14526,0 z"
           style="font-style:normal;font-variant:normal;font-weight:bold;font-stretch:normal;font-size:37.5px;line-height:125%;font-family:'Liberation Sans';-inkscape-font-specification:'Liberation Sans Bold';text-align:center;writing-mode:lr-tb;text-anchor:middle;fill:#000000;fill-opacity:1"
           id="path5624" />
        <path
           d="m -298.71631,178.7847 q -2.14233,0 -3.86352,-0.62256 -1.70288,-0.64087 -2.91138,-1.9226 -1.2085,-1.30005 -1.84937,-3.24097 -0.64087,-1.95923 -0.64087,-4.57764 0,-2.83813 0.75074,-4.77905 0.76904,-1.94092 2.05078,-3.1311 1.30005,-1.2085 2.98462,-1.73951 1.68457,-0.531 3.55224,-0.531 2.34375,0 3.9917,0.82397 1.66626,0.80567 2.72827,2.27051 1.06202,1.46484 1.5564,3.51563 0.49439,2.03247 0.49439,4.50439 l 0,0.14648 -12.70752,0 q 0,1.24512 0.21972,2.32544 0.21973,1.06202 0.71411,1.84937 0.49439,0.76904 1.28174,1.22681 0.78736,0.43945 1.9043,0.43945 1.35498,0 2.21558,-0.56763 0.86059,-0.58594 1.2268,-1.79443 l 4.8523,0.42114 q -0.32959,0.84229 -0.93384,1.79443 -0.58594,0.95215 -1.57471,1.75782 -0.98877,0.78735 -2.47192,1.31836 -1.46485,0.51269 -3.57056,0.51269 z m 0,-17.30346 q -0.78735,0 -1.48315,0.27465 -0.67749,0.25635 -1.19019,0.84229 -0.49438,0.56763 -0.80566,1.48315 -0.31128,0.91553 -0.3479,2.19727 l 7.69043,0 q -0.14649,-2.39868 -1.15357,-3.58887 -1.00708,-1.20849 -2.70996,-1.20849 z"
           style="font-style:normal;font-variant:normal;font-weight:bold;font-stretch:normal;font-size:37.5px;line-height:125%;font-family:'Liberation Sans';-inkscape-font-specification:'Liberation Sans Bold';text-align:center;writing-mode:lr-tb;text-anchor:middle;fill:#000000;fill-opacity:1"
           id="path5626" />
        <path
           d="m -285.95386,178.41849 0,-27.17285 5.14527,0 0,27.17285 -5.14527,0 z"
           style="font-style:normal;font-variant:normal;font-weight:bold;font-stretch:normal;font-size:37.5px;line-height:125%;font-family:'Liberation Sans';-inkscape-font-specification:'Liberation Sans Bold';text-align:center;writing-mode:lr-tb;text-anchor:middle;fill:#000000;fill-opacity:1"
           id="path5628" />
      </g>
      <g
         transform="translate(0,216)"
         id="g4754">
        <rect
           transform="matrix(1.0535847,0,0,0.99904812,-56.292847,0.22948815)"
           y="231.99693"
           x="1031.8517"
           height="18.182745"
           width="37.375645"
           id="rect4756"
           style="color:#000000;clip-rule:nonzero;display:inline;overflow:visible;visibility:visible;opacity:0.22400004;isolation:auto;mix-blend-mode:normal;color-interpolation:sRGB;color-interpolation-filters:linearRGB;solid-color:#000000;solid-opacity:1;fill:url(#linearGradient5607);fill-opacity:1;fill-rule:evenodd;stroke:none;stroke-width:1.98859394px;stroke-linecap:butt;stroke-linejoin:miter;stroke-miterlimit:4;stroke-dasharray:none;stroke-dashoffset:0;stroke-opacity:1;marker:none;filter:url(#filter4730);color-rendering:auto;image-rendering:auto;shape-rendering:auto;text-rendering:auto;enable-background:accumulate" />
        <rect
           style="color:#000000;clip-rule:nonzero;display:inline;overflow:visible;visibility:visible;opacity:0.50199998;isolation:auto;mix-blend-mode:normal;color-interpolation:sRGB;color-interpolation-filters:linearRGB;solid-color:#000000;solid-opacity:1;fill:url(#linearGradient5609);fill-opacity:1;fill-rule:evenodd;stroke:none;stroke-width:1.98859394px;stroke-linecap:butt;stroke-linejoin:miter;stroke-miterlimit:4;stroke-dasharray:none;stroke-dashoffset:0;stroke-opacity:1;marker:none;filter:url(#filter4730);color-rendering:auto;image-rendering:auto;shape-rendering:auto;text-rendering:auto;enable-background:accumulate"
           id="rect4758"
           width="37.375645"
           height="18.182745"
           x="1031.8517"
           y="231.99693"
           transform="matrix(1.050292,0,0,-1.3954459,-52.833756,684.71642)" />
      </g>
      <path
         style="opacity:1;fill:url(#linearGradient4642);fill-opacity:1;fill-rule:evenodd;stroke:none;stroke-width:1.98859394px;stroke-linecap:butt;stroke-linejoin:miter;stroke-opacity:1"
         d="m 1104.888,456.38804 -361.00826,5.05077 -81.35389,50.9459 69.98268,44.58571 374.97617,1.01015 z"
         id="path4640"
         inkscape:connector-curvature="0"
         sodipodi:nodetypes="cccccc" />
      <g
         transform="matrix(0.78675,-0.00722809,0.00722809,0.78675,1122.1865,356.71574)"
         style="font-style:normal;font-variant:normal;font-weight:normal;font-stretch:normal;font-size:22.09246063px;line-height:125%;font-family:Arial;-inkscape-font-specification:Arial;text-align:center;letter-spacing:0px;word-spacing:0px;writing-mode:tb-rl;text-anchor:middle;fill:#000000;fill-opacity:1;stroke:none;stroke-width:1px;stroke-linecap:butt;stroke-linejoin:miter;stroke-opacity:1;filter:url(#filter4795)"
         id="flowRoot5210">
        <path
           d="m -415.81787,178.41849 0,-11.05957 -11.24268,0 0,11.05957 -5.40161,0 0,-25.79956 5.40161,0 0,10.27222 11.24268,0 0,-10.27222 5.40161,0 0,25.79956 -5.40161,0 z"
           style="font-style:normal;font-variant:normal;font-weight:bold;font-stretch:normal;font-size:37.5px;line-height:125%;font-family:'Liberation Sans';-inkscape-font-specification:'Liberation Sans Bold';text-align:center;writing-mode:lr-tb;text-anchor:middle"
           id="path5631" />
        <path
           d="m -397.14111,178.7847 q -2.14234,0 -3.86353,-0.62256 -1.70288,-0.64087 -2.91138,-1.9226 -1.20849,-1.30005 -1.84936,-3.24097 -0.64087,-1.95923 -0.64087,-4.57764 0,-2.83813 0.75073,-4.77905 0.76905,-1.94092 2.05078,-3.1311 1.30005,-1.2085 2.98462,-1.73951 1.68457,-0.531 3.55225,-0.531 2.34375,0 3.9917,0.82397 1.66626,0.80567 2.72827,2.27051 1.06201,1.46484 1.5564,3.51563 0.49438,2.03247 0.49438,4.50439 l 0,0.14648 -12.70752,0 q 0,1.24512 0.21973,2.32544 0.21972,1.06202 0.71411,1.84937 0.49438,0.76904 1.28174,1.22681 0.78735,0.43945 1.90429,0.43945 1.35498,0 2.21558,-0.56763 0.8606,-0.58594 1.22681,-1.79443 l 4.85229,0.42114 q -0.32959,0.84229 -0.93384,1.79443 -0.58593,0.95215 -1.5747,1.75782 -0.98877,0.78735 -2.47193,1.31836 -1.46484,0.51269 -3.57055,0.51269 z m 0,-17.30346 q -0.78736,0 -1.48316,0.27465 -0.67749,0.25635 -1.19018,0.84229 -0.49439,0.56763 -0.80567,1.48315 -0.31128,0.91553 -0.3479,2.19727 l 7.69043,0 q -0.14648,-2.39868 -1.15356,-3.58887 -1.00708,-1.20849 -2.70996,-1.20849 z"
           style="font-style:normal;font-variant:normal;font-weight:bold;font-stretch:normal;font-size:37.5px;line-height:125%;font-family:'Liberation Sans';-inkscape-font-specification:'Liberation Sans Bold';text-align:center;writing-mode:lr-tb;text-anchor:middle"
           id="path5633" />
        <path
           d="m -384.37866,178.41849 0,-15.16113 q 0,-0.64087 -0.0183,-1.35498 0,-0.71411 -0.0366,-1.35498 -0.0183,-0.65918 -0.0366,-1.17188 -0.0183,-0.531 -0.0549,-0.76904 l 4.90723,0 q 0.0366,0.21973 0.0732,0.76904 0.0366,0.53101 0.0732,1.17188 0.0366,0.64087 0.0549,1.28174 0.0366,0.62255 0.0366,1.00708 l 0.0732,0 q 0.38452,-1.08033 0.76904,-1.92261 0.38452,-0.8606 0.89722,-1.44653 0.53101,-0.60425 1.26343,-0.91553 0.73242,-0.32959 1.81274,-0.32959 0.45776,0 0.89722,0.0916 0.45776,0.0732 0.6958,0.18311 l 0,4.30297 q -0.49439,-0.10986 -1.00708,-0.1831 -0.49439,-0.0916 -1.19019,-0.0916 -1.9226,0 -3.00293,1.55639 -1.06201,1.5564 -1.06201,4.61426 l 0,9.7229 -5.14526,0 z"
           style="font-style:normal;font-variant:normal;font-weight:bold;font-stretch:normal;font-size:37.5px;line-height:125%;font-family:'Liberation Sans';-inkscape-font-specification:'Liberation Sans Bold';text-align:center;writing-mode:lr-tb;text-anchor:middle"
           id="path5635" />
        <path
           d="m -365.22583,178.7847 q -1.42822,0 -2.56348,-0.38452 -1.11694,-0.40283 -1.90429,-1.15356 -0.78736,-0.76905 -1.2085,-1.88599 -0.42114,-1.11694 -0.42114,-2.54517 0,-1.75781 0.60425,-2.94799 0.62255,-1.2085 1.68457,-1.94092 1.06201,-0.75073 2.49023,-1.08032 1.42822,-0.3479 3.03955,-0.36622 l 4.26636,-0.0732 0,-1.00708 q 0,-1.08032 -0.20142,-1.79443 -0.1831,-0.73242 -0.54931,-1.19019 -0.36621,-0.45776 -0.91553,-0.64087 -0.53101,-0.20141 -1.22681,-0.20141 -0.64087,0 -1.15356,0.12817 -0.49439,0.12818 -0.8606,0.45777 -0.36621,0.31127 -0.60425,0.86059 -0.21972,0.53101 -0.31128,1.35498 l -5.36499,-0.25635 q 0.21973,-1.30004 0.80567,-2.36206 0.58594,-1.08032 1.61133,-1.86767 1.0437,-0.78736 2.54516,-1.2085 1.51978,-0.43945 3.55225,-0.43945 1.84936,0 3.2959,0.45776 1.44653,0.45777 2.45361,1.37329 1.00708,0.89722 1.53809,2.21558 0.531,1.31836 0.531,3.05786 l 0,7.21436 q 0,0.6958 0.0549,1.24511 0.0733,0.54932 0.23804,0.93384 0.18311,0.36621 0.49439,0.56763 0.32959,0.1831 0.84228,0.1831 0.58594,0 1.13526,-0.10986 l 0,2.7832 q -0.45777,0.10987 -0.82398,0.20142 -0.36621,0.0915 -0.73242,0.14648 -0.36621,0.0549 -0.78735,0.0916 -0.40284,0.0366 -0.95215,0.0366 -1.94092,0 -2.87476,-0.95215 -0.91553,-0.95215 -1.09863,-2.80151 l -0.10987,0 q -1.02539,1.84936 -2.63671,2.87475 -1.59302,1.02539 -3.88184,1.02539 z m 5.98755,-9.53979 -2.63672,0.0366 q -0.82397,0.0366 -1.57471,0.14648 -0.73242,0.0916 -1.30005,0.42115 -0.54931,0.31127 -0.8789,0.91552 -0.32959,0.60425 -0.32959,1.64795 0,1.40991 0.64087,2.10571 0.65918,0.67749 1.7395,0.67749 0.98877,0 1.79443,-0.42114 0.80567,-0.42114 1.35498,-1.09863 0.56763,-0.6958 0.87891,-1.59302 0.31128,-0.89721 0.31128,-1.83105 l 0,-1.00708 z"
           style="font-style:normal;font-variant:normal;font-weight:bold;font-stretch:normal;font-size:37.5px;line-height:125%;font-family:'Liberation Sans';-inkscape-font-specification:'Liberation Sans Bold';text-align:center;writing-mode:lr-tb;text-anchor:middle"
           id="path5637" />
        <path
           d="m -344.07715,158.60648 0,11.1145 q 0,1.15357 0.18311,2.12402 0.1831,0.95215 0.60425,1.64795 0.42114,0.67749 1.08032,1.06202 0.67749,0.38452 1.64795,0.38452 0.93383,0 1.68457,-0.40283 0.76904,-0.42115 1.31836,-1.17188 0.54931,-0.76904 0.84228,-1.81274 0.31128,-1.06202 0.31128,-2.32544 l 0,-10.62012 5.14526,0 0,15.38086 q 0,0.62256 0,1.31836 0.0183,0.67749 0.0366,1.30005 0.0366,0.60425 0.0549,1.09863 0.0366,0.47607 0.0549,0.71411 l -4.90723,0 q -0.0183,-0.21973 -0.0732,-0.6958 -0.0366,-0.49438 -0.0732,-1.08032 -0.0183,-0.58594 -0.0549,-1.17188 -0.0183,-0.58593 -0.0183,-0.98877 l -0.0916,0 q -1.02539,2.2522 -2.61841,3.27759 -1.5747,1.02539 -3.75366,1.02539 -1.77612,0 -3.02124,-0.58594 -1.24511,-0.58593 -2.03247,-1.59301 -0.76904,-1.02539 -1.11694,-2.417 -0.3479,-1.3916 -0.3479,-3.00292 l 0,-12.57935 5.14526,0 z"
           style="font-style:normal;font-variant:normal;font-weight:bold;font-stretch:normal;font-size:37.5px;line-height:125%;font-family:'Liberation Sans';-inkscape-font-specification:'Liberation Sans Bold';text-align:center;writing-mode:lr-tb;text-anchor:middle"
           id="path5639" />
        <path
           d="m -309.30542,172.63236 q 0,1.42822 -0.60425,2.56347 -0.58594,1.13526 -1.72119,1.94092 -1.13525,0.78736 -2.7832,1.22681 -1.64795,0.42114 -3.75366,0.42114 -1.88599,0 -3.40577,-0.27466 -1.51977,-0.27465 -2.67334,-0.89721 -1.13525,-0.64087 -1.90429,-1.64795 -0.76905,-1.00708 -1.15357,-2.49024 l 4.52271,-0.67749 q 0.21972,0.82398 0.60425,1.33667 0.38452,0.5127 0.95214,0.78736 0.56763,0.27465 1.31836,0.36621 0.76905,0.0916 1.73951,0.0916 0.8789,0 1.62963,-0.0916 0.76905,-0.10987 1.31836,-0.3479 0.56763,-0.25635 0.87891,-0.6958 0.31128,-0.45777 0.31128,-1.13526 0,-0.76904 -0.45776,-1.20849 -0.43946,-0.45777 -1.22681,-0.73243 -0.76904,-0.29296 -1.83106,-0.49438 -1.0437,-0.21973 -2.23388,-0.49438 -1.24512,-0.27466 -2.45362,-0.65918 -1.20849,-0.38453 -2.16064,-1.04371 -0.95215,-0.65918 -1.53809,-1.66626 -0.58593,-1.02539 -0.58593,-2.58178 0,-1.40991 0.54931,-2.50855 0.54932,-1.11694 1.61133,-1.88598 1.06201,-0.78736 2.61841,-1.19019 1.57471,-0.42114 3.60718,-0.42114 1.61132,0 3.00293,0.31128 1.3916,0.29297 2.49023,0.95215 1.09863,0.64086 1.83106,1.64794 0.75073,1.00709 1.0437,2.43531 l -4.55933,0.47607 q -0.12817,-0.71411 -0.45776,-1.17187 -0.32959,-0.47608 -0.82398,-0.75074 -0.47607,-0.27465 -1.11694,-0.36621 -0.64087,-0.10986 -1.40991,-0.10986 -1.83106,0 -2.74659,0.47607 -0.91552,0.45777 -0.91552,1.5564 0,0.67749 0.36621,1.08032 0.38452,0.40284 1.06201,0.67749 0.6958,0.25635 1.62964,0.45777 0.95215,0.1831 2.06909,0.45776 1.37329,0.29297 2.69165,0.6958 1.33667,0.38452 2.36206,1.08032 1.0437,0.67749 1.66626,1.75782 0.64087,1.08032 0.64087,2.74658 z"
           style="font-style:normal;font-variant:normal;font-weight:bold;font-stretch:normal;font-size:37.5px;line-height:125%;font-family:'Liberation Sans';-inkscape-font-specification:'Liberation Sans Bold';text-align:center;writing-mode:lr-tb;text-anchor:middle"
           id="path5641" />
        <path
           d="m -299.08813,162.08548 0,16.33301 -5.12696,0 0,-16.33301 -2.89306,0 0,-3.479 2.89306,0 0,-2.06909 q 0,-1.13526 0.27466,-2.0874 0.27466,-0.97046 0.93384,-1.68457 0.65918,-0.71412 1.77612,-1.11695 1.11694,-0.40283 2.7832,-0.40283 0.87891,0 1.7212,0.0915 0.86059,0.0916 1.53808,0.20142 l 0,3.31421 q -0.32959,-0.0732 -0.75073,-0.10987 -0.40283,-0.0549 -0.75073,-0.0549 -0.71411,0 -1.19019,0.14649 -0.45776,0.14648 -0.73242,0.43945 -0.25635,0.29297 -0.36621,0.75073 -0.10986,0.43946 -0.10986,1.02539 l 0,1.5564 3.90014,0 0,3.479 -3.90014,0 z"
           style="font-style:normal;font-variant:normal;font-weight:bold;font-stretch:normal;font-size:37.5px;line-height:125%;font-family:'Liberation Sans';-inkscape-font-specification:'Liberation Sans Bold';text-align:center;writing-mode:lr-tb;text-anchor:middle"
           id="path5643" />
        <path
           d="m -273.78296,168.49417 q 0,2.27051 -0.64087,4.1565 -0.62256,1.88599 -1.88598,3.25928 -1.26343,1.35498 -3.14942,2.12402 -1.88598,0.75073 -4.39453,0.75073 -2.41699,0 -4.26636,-0.75073 -1.84936,-0.75073 -3.11279,-2.10571 -1.24512,-1.35498 -1.88599,-3.24097 -0.64087,-1.9043 -0.64087,-4.19312 0,-2.21557 0.60425,-4.08325 0.62256,-1.88598 1.86768,-3.25927 1.24512,-1.3733 3.1311,-2.14234 1.88599,-0.76904 4.41284,-0.76904 2.67334,0 4.55933,0.76904 1.88599,0.76904 3.07617,2.14234 1.2085,1.35498 1.75781,3.24096 0.56763,1.86768 0.56763,4.10156 z m -5.3833,0 q 0,-3.53393 -1.15356,-5.12695 -1.15357,-1.59302 -3.35083,-1.59302 -2.27051,0 -3.47901,1.61133 -1.20849,1.61133 -1.20849,5.10864 0,1.77613 0.31128,3.05787 0.32958,1.28173 0.91552,2.10571 0.58594,0.82397 1.40991,1.22681 0.82398,0.38452 1.81275,0.38452 1.13525,0 2.01416,-0.38452 0.89722,-0.40284 1.50146,-1.22681 0.60425,-0.82398 0.91553,-2.10571 0.31128,-1.28174 0.31128,-3.05787 z"
           style="font-style:normal;font-variant:normal;font-weight:bold;font-stretch:normal;font-size:37.5px;line-height:125%;font-family:'Liberation Sans';-inkscape-font-specification:'Liberation Sans Bold';text-align:center;writing-mode:lr-tb;text-anchor:middle"
           id="path5645" />
        <path
           d="m -269.6814,178.41849 0,-15.16113 q 0,-0.64087 -0.0183,-1.35498 0,-0.71411 -0.0366,-1.35498 -0.0183,-0.65918 -0.0366,-1.17188 -0.0183,-0.531 -0.0549,-0.76904 l 4.90723,0 q 0.0366,0.21973 0.0732,0.76904 0.0366,0.53101 0.0732,1.17188 0.0366,0.64087 0.0549,1.28174 0.0366,0.62255 0.0366,1.00708 l 0.0732,0 q 0.38452,-1.08033 0.76904,-1.92261 0.38452,-0.8606 0.89721,-1.44653 0.53101,-0.60425 1.26343,-0.91553 0.73242,-0.32959 1.81275,-0.32959 0.45776,0 0.89721,0.0916 0.45777,0.0732 0.6958,0.18311 l 0,4.30297 q -0.49438,-0.10986 -1.00708,-0.1831 -0.49438,-0.0916 -1.19018,-0.0916 -1.92261,0 -3.00293,1.55639 -1.06201,1.5564 -1.06201,4.61426 l 0,9.7229 -5.14527,0 z"
           style="font-style:normal;font-variant:normal;font-weight:bold;font-stretch:normal;font-size:37.5px;line-height:125%;font-family:'Liberation Sans';-inkscape-font-specification:'Liberation Sans Bold';text-align:center;writing-mode:lr-tb;text-anchor:middle"
           id="path5647" />
        <path
           d="m -242.27051,178.41849 q -0.0366,-0.14648 -0.0916,-0.51269 -0.0366,-0.38453 -0.0915,-0.8606 -0.0366,-0.47607 -0.0733,-0.97046 -0.0183,-0.49438 -0.0183,-0.87891 l -0.0732,0 q -0.89721,1.92261 -2.50854,2.7649 -1.59302,0.82397 -3.82691,0.82397 -1.86767,0 -3.24096,-0.76904 -1.35498,-0.76904 -2.2522,-2.14233 -0.87891,-1.3733 -1.31836,-3.24097 -0.42114,-1.88599 -0.42114,-4.10156 0,-2.2522 0.43945,-4.13819 0.45776,-1.88598 1.3916,-3.24096 0.93384,-1.3733 2.36206,-2.14234 1.44654,-0.76904 3.42407,-0.76904 0.97046,0 1.86768,0.20141 0.89722,0.20142 1.66626,0.62256 0.76904,0.42115 1.3916,1.08033 0.62256,0.65918 1.06201,1.59301 l 0.0366,0 q 0,-0.1831 -0.0183,-0.531 0,-0.36621 0,-0.82398 0,-0.45776 -0.0183,-0.95215 0,-0.49438 0,-0.95214 l 0,-7.23267 5.14527,0 0,22.85156 q 0,1.44654 0.0549,2.58179 0.0549,1.11694 0.0915,1.7395 l -4.98047,0 z m -0.23803,-10.01587 q 0,-1.95923 -0.36622,-3.24096 -0.36621,-1.30005 -0.97045,-2.05079 -0.58594,-0.76904 -1.35499,-1.06201 -0.75073,-0.31128 -1.53808,-0.31128 -0.98877,0 -1.75781,0.38452 -0.75074,0.38453 -1.28174,1.2085 -0.5127,0.82398 -0.78736,2.10571 -0.25634,1.28174 -0.25634,3.09449 0,6.73828 4.04663,6.73828 0.76904,0 1.53808,-0.32959 0.76905,-0.32959 1.37329,-1.11695 0.60425,-0.78735 0.97046,-2.10571 0.38453,-1.33667 0.38453,-3.31421 z"
           style="font-style:normal;font-variant:normal;font-weight:bold;font-stretch:normal;font-size:37.5px;line-height:125%;font-family:'Liberation Sans';-inkscape-font-specification:'Liberation Sans Bold';text-align:center;writing-mode:lr-tb;text-anchor:middle"
           id="path5649" />
        <path
           d="m -224.06982,178.7847 q -2.14234,0 -3.86353,-0.62256 -1.70288,-0.64087 -2.91138,-1.9226 -1.20849,-1.30005 -1.84936,-3.24097 -0.64087,-1.95923 -0.64087,-4.57764 0,-2.83813 0.75073,-4.77905 0.76904,-1.94092 2.05078,-3.1311 1.30005,-1.2085 2.98462,-1.73951 1.68457,-0.531 3.55225,-0.531 2.34375,0 3.9917,0.82397 1.66626,0.80567 2.72827,2.27051 1.06201,1.46484 1.5564,3.51563 0.49438,2.03247 0.49438,4.50439 l 0,0.14648 -12.70752,0 q 0,1.24512 0.21973,2.32544 0.21972,1.06202 0.71411,1.84937 0.49438,0.76904 1.28174,1.22681 0.78735,0.43945 1.90429,0.43945 1.35498,0 2.21558,-0.56763 0.8606,-0.58594 1.22681,-1.79443 l 4.85229,0.42114 q -0.32959,0.84229 -0.93384,1.79443 -0.58593,0.95215 -1.5747,1.75782 -0.98877,0.78735 -2.47193,1.31836 -1.46484,0.51269 -3.57055,0.51269 z m 0,-17.30346 q -0.78736,0 -1.48316,0.27465 -0.67749,0.25635 -1.19018,0.84229 -0.49439,0.56763 -0.80567,1.48315 -0.31128,0.91553 -0.3479,2.19727 l 7.69043,0 q -0.14648,-2.39868 -1.15356,-3.58887 -1.00708,-1.20849 -2.70996,-1.20849 z"
           style="font-style:normal;font-variant:normal;font-weight:bold;font-stretch:normal;font-size:37.5px;line-height:125%;font-family:'Liberation Sans';-inkscape-font-specification:'Liberation Sans Bold';text-align:center;writing-mode:lr-tb;text-anchor:middle"
           id="path5651" />
        <path
           d="m -211.30737,178.41849 0,-15.16113 q 0,-0.64087 -0.0183,-1.35498 0,-0.71411 -0.0366,-1.35498 -0.0183,-0.65918 -0.0366,-1.17188 -0.0183,-0.531 -0.0549,-0.76904 l 4.90723,0 q 0.0366,0.21973 0.0732,0.76904 0.0366,0.53101 0.0732,1.17188 0.0366,0.64087 0.0549,1.28174 0.0366,0.62255 0.0366,1.00708 l 0.0732,0 q 0.38452,-1.08033 0.76904,-1.92261 0.38452,-0.8606 0.89722,-1.44653 0.531,-0.60425 1.26343,-0.91553 0.73242,-0.32959 1.81274,-0.32959 0.45776,0 0.89722,0.0916 0.45776,0.0732 0.6958,0.18311 l 0,4.30297 q -0.49439,-0.10986 -1.00708,-0.1831 -0.49439,-0.0916 -1.19019,-0.0916 -1.92261,0 -3.00293,1.55639 -1.06201,1.5564 -1.06201,4.61426 l 0,9.7229 -5.14526,0 z"
           style="font-style:normal;font-variant:normal;font-weight:bold;font-stretch:normal;font-size:37.5px;line-height:125%;font-family:'Liberation Sans';-inkscape-font-specification:'Liberation Sans Bold';text-align:center;writing-mode:lr-tb;text-anchor:middle"
           id="path5653" />
        <path
           d="m -191.87988,158.60648 0,11.1145 q 0,1.15357 0.1831,2.12402 0.18311,0.95215 0.60425,1.64795 0.42114,0.67749 1.08032,1.06202 0.67749,0.38452 1.64795,0.38452 0.93384,0 1.68457,-0.40283 0.76905,-0.42115 1.31836,-1.17188 0.54932,-0.76904 0.84229,-1.81274 0.31128,-1.06202 0.31128,-2.32544 l 0,-10.62012 5.14526,0 0,15.38086 q 0,0.62256 0,1.31836 0.0183,0.67749 0.0366,1.30005 0.0366,0.60425 0.0549,1.09863 0.0366,0.47607 0.0549,0.71411 l -4.90722,0 q -0.0183,-0.21973 -0.0732,-0.6958 -0.0366,-0.49438 -0.0733,-1.08032 -0.0183,-0.58594 -0.0549,-1.17188 -0.0183,-0.58593 -0.0183,-0.98877 l -0.0916,0 q -1.02539,2.2522 -2.61841,3.27759 -1.57471,1.02539 -3.75366,1.02539 -1.77612,0 -3.02124,-0.58594 -1.24512,-0.58593 -2.03247,-1.59301 -0.76905,-1.02539 -1.11695,-2.417 -0.3479,-1.3916 -0.3479,-3.00292 l 0,-12.57935 5.14527,0 z"
           style="font-style:normal;font-variant:normal;font-weight:bold;font-stretch:normal;font-size:37.5px;line-height:125%;font-family:'Liberation Sans';-inkscape-font-specification:'Liberation Sans Bold';text-align:center;writing-mode:lr-tb;text-anchor:middle"
           id="path5655" />
        <path
           d="m -160.97168,178.41849 0,-11.1145 q 0,-1.15357 -0.18311,-2.10571 -0.1831,-0.97046 -0.60424,-1.64795 -0.42115,-0.6958 -1.09864,-1.08033 -0.67749,-0.38452 -1.64795,-0.38452 -0.93383,0 -1.70288,0.42115 -0.75073,0.40283 -1.30004,1.17187 -0.54932,0.75073 -0.8606,1.81275 -0.29297,1.0437 -0.29297,2.30712 l 0,10.62012 -5.14526,0 0,-15.38086 q 0,-0.64087 -0.0183,-1.31836 0,-0.67749 -0.0366,-1.28174 -0.0183,-0.62255 -0.0366,-1.09863 -0.0183,-0.49438 -0.0549,-0.73242 l 4.90723,0 q 0.0366,0.21973 0.0732,0.71411 0.0366,0.47608 0.0732,1.06201 0.0366,0.58594 0.0549,1.17188 0.0366,0.58594 0.0366,0.98877 l 0.0732,0 q 1.0437,-2.27051 2.61841,-3.2959 1.5747,-1.02539 3.75366,-1.02539 1.79443,0 3.02124,0.58594 1.24512,0.58593 2.01416,1.61132 0.78735,1.02539 1.13525,2.417 0.3479,1.3916 0.3479,3.00293 l 0,12.57934 -5.12695,0 z"
           style="font-style:normal;font-variant:normal;font-weight:bold;font-stretch:normal;font-size:37.5px;line-height:125%;font-family:'Liberation Sans';-inkscape-font-specification:'Liberation Sans Bold';text-align:center;writing-mode:lr-tb;text-anchor:middle"
           id="path5657" />
        <path
           d="m -142.58789,186.36527 q -1.95923,0 -3.46069,-0.40283 -1.48316,-0.38452 -2.54517,-1.09864 -1.0437,-0.6958 -1.68457,-1.68457 -0.62256,-0.97046 -0.8606,-2.14233 l 5.14527,-0.60425 q 0.27466,1.19019 1.17187,1.86768 0.91553,0.67749 2.38037,0.67749 0.91553,0 1.66626,-0.25635 0.76905,-0.25635 1.30005,-0.87891 0.54932,-0.60424 0.84229,-1.61132 0.31128,-1.00708 0.31128,-2.49024 0,-0.51269 0,-1.0437 0,-0.53101 0.0183,-0.97046 0.0183,-0.51269 0.0183,-0.98877 l -0.0366,0 q -0.89722,1.92261 -2.52686,2.7832 -1.61133,0.8606 -3.84521,0.8606 -1.88599,0 -3.25928,-0.73242 -1.35498,-0.75073 -2.2522,-2.06909 -0.89721,-1.33667 -1.33667,-3.16773 -0.42114,-1.84936 -0.42114,-4.06494 0,-2.28882 0.45776,-4.13818 0.45777,-1.86768 1.3916,-3.20435 0.95215,-1.33667 2.38038,-2.05078 1.44653,-0.73242 3.42407,-0.73242 1.97754,0 3.53393,0.84228 1.57471,0.84229 2.45362,2.72827 l 0.0915,0 q 0,-0.38452 0.0183,-0.8789 0.0366,-0.5127 0.0732,-0.97046 0.0366,-0.47607 0.0732,-0.84229 0.0549,-0.36621 0.0916,-0.49438 l 4.8706,0 q -0.0366,0.65918 -0.0732,1.84936 -0.0366,1.19019 -0.0366,2.72828 l 0,14.63012 q 0,2.16065 -0.62256,3.75367 -0.62256,1.61132 -1.83105,2.67334 -1.19019,1.06201 -2.948,1.59301 -1.7395,0.53101 -3.97339,0.53101 z m 4.30298,-18.12744 q 0,-1.86768 -0.36621,-3.1128 -0.36621,-1.24511 -0.95215,-1.99585 -0.58594,-0.75073 -1.35498,-1.06201 -0.75073,-0.31128 -1.51978,-0.31128 -0.98877,0 -1.75781,0.38453 -0.75073,0.38452 -1.28174,1.19018 -0.531,0.80566 -0.80566,2.05078 -0.27466,1.24512 -0.27466,2.96631 0,3.20435 1.02539,4.83398 1.02539,1.62964 3.05786,1.62964 0.76904,0 1.51978,-0.29297 0.76904,-0.31127 1.37329,-1.06201 0.60425,-0.76904 0.97046,-2.03247 0.36621,-1.26343 0.36621,-3.18603 z"
           style="font-style:normal;font-variant:normal;font-weight:bold;font-stretch:normal;font-size:37.5px;line-height:125%;font-family:'Liberation Sans';-inkscape-font-specification:'Liberation Sans Bold';text-align:center;writing-mode:lr-tb;text-anchor:middle"
           id="path5659" />
        <path
           d="m -119.84619,178.7847 q -2.14234,0 -3.86353,-0.62256 -1.70288,-0.64087 -2.91137,-1.9226 -1.2085,-1.30005 -1.84937,-3.24097 -0.64087,-1.95923 -0.64087,-4.57764 0,-2.83813 0.75073,-4.77905 0.76905,-1.94092 2.05079,-3.1311 1.30004,-1.2085 2.98461,-1.73951 1.68457,-0.531 3.55225,-0.531 2.34375,0 3.9917,0.82397 1.66626,0.80567 2.72827,2.27051 1.06201,1.46484 1.5564,3.51563 0.49438,2.03247 0.49438,4.50439 l 0,0.14648 -12.70752,0 q 0,1.24512 0.21973,2.32544 0.21973,1.06202 0.71411,1.84937 0.49439,0.76904 1.28174,1.22681 0.78735,0.43945 1.9043,0.43945 1.35498,0 2.21557,-0.56763 0.8606,-0.58594 1.22681,-1.79443 l 4.85229,0.42114 q -0.32959,0.84229 -0.93383,1.79443 -0.58594,0.95215 -1.57471,1.75782 -0.98877,0.78735 -2.47192,1.31836 -1.46485,0.51269 -3.57056,0.51269 z m 0,-17.30346 q -0.78735,0 -1.48316,0.27465 -0.67749,0.25635 -1.19018,0.84229 -0.49439,0.56763 -0.80567,1.48315 -0.31127,0.91553 -0.3479,2.19727 l 7.69043,0 q -0.14648,-2.39868 -1.15356,-3.58887 -1.00708,-1.20849 -2.70996,-1.20849 z"
           style="font-style:normal;font-variant:normal;font-weight:bold;font-stretch:normal;font-size:37.5px;line-height:125%;font-family:'Liberation Sans';-inkscape-font-specification:'Liberation Sans Bold';text-align:center;writing-mode:lr-tb;text-anchor:middle"
           id="path5661" />
        <path
           d="m -94.248047,178.41849 0,-11.1145 q 0,-1.15357 -0.183105,-2.10571 -0.183106,-0.97046 -0.604248,-1.64795 -0.421143,-0.6958 -1.098633,-1.08033 -0.67749,-0.38452 -1.647949,-0.38452 -0.933838,0 -1.702881,0.42115 -0.750737,0.40283 -1.300047,1.17187 -0.54932,0.75073 -0.8606,1.81275 -0.29297,1.0437 -0.29297,2.30712 l 0,10.62012 -5.14526,0 0,-15.38086 q 0,-0.64087 -0.0183,-1.31836 0,-0.67749 -0.0366,-1.28174 -0.0183,-0.62255 -0.0366,-1.09863 -0.0183,-0.49438 -0.0549,-0.73242 l 4.90722,0 q 0.0366,0.21973 0.0732,0.71411 0.0366,0.47608 0.0733,1.06201 0.0366,0.58594 0.0549,1.17188 0.0366,0.58594 0.0366,0.98877 l 0.0732,0 q 1.0437,-2.27051 2.618409,-3.2959 1.574707,-1.02539 3.753663,-1.02539 1.794433,0 3.02124,0.58594 1.245117,0.58593 2.01416,1.61132 0.787353,1.02539 1.135254,2.417 0.3479,1.3916 0.3479,3.00293 l 0,12.57934 -5.126953,0 z"
           style="font-style:normal;font-variant:normal;font-weight:bold;font-stretch:normal;font-size:37.5px;line-height:125%;font-family:'Liberation Sans';-inkscape-font-specification:'Liberation Sans Bold';text-align:center;writing-mode:lr-tb;text-anchor:middle"
           id="path5663" />
        <path
           d="m -434.05518,225.29349 q -0.0366,-0.14648 -0.0915,-0.51269 -0.0366,-0.38453 -0.0915,-0.8606 -0.0366,-0.47607 -0.0732,-0.97046 -0.0183,-0.49438 -0.0183,-0.87891 l -0.0732,0 q -0.89721,1.92261 -2.50854,2.7649 -1.59302,0.82397 -3.82691,0.82397 -1.86767,0 -3.24096,-0.76904 -1.35498,-0.76904 -2.2522,-2.14233 -0.87891,-1.3733 -1.31836,-3.24097 -0.42114,-1.88599 -0.42114,-4.10156 0,-2.2522 0.43945,-4.13819 0.45777,-1.88598 1.3916,-3.24096 0.93384,-1.3733 2.36206,-2.14234 1.44654,-0.76904 3.42408,-0.76904 0.97046,0 1.86767,0.20141 0.89722,0.20142 1.66626,0.62256 0.76904,0.42115 1.3916,1.08033 0.62256,0.65918 1.06201,1.59301 l 0.0366,0 q 0,-0.1831 -0.0183,-0.531 0,-0.36621 0,-0.82398 0,-0.45776 -0.0183,-0.95215 0,-0.49438 0,-0.95214 l 0,-7.23267 5.14527,0 0,22.85156 q 0,1.44654 0.0549,2.58179 0.0549,1.11694 0.0916,1.7395 l -4.98047,0 z m -0.23803,-10.01587 q 0,-1.95923 -0.36621,-3.24096 -0.36621,-1.30005 -0.97046,-2.05079 -0.58594,-0.76904 -1.35498,-1.06201 -0.75074,-0.31128 -1.53809,-0.31128 -0.98877,0 -1.75781,0.38452 -0.75073,0.38453 -1.28174,1.2085 -0.5127,0.82398 -0.78735,2.10571 -0.25635,1.28174 -0.25635,3.09449 0,6.73828 4.04663,6.73828 0.76904,0 1.53809,-0.32959 0.76904,-0.32959 1.37329,-1.11695 0.60424,-0.78735 0.97046,-2.10571 0.38452,-1.33667 0.38452,-3.31421 z"
           style="font-style:normal;font-variant:normal;font-weight:bold;font-stretch:normal;font-size:37.5px;line-height:125%;font-family:'Liberation Sans';-inkscape-font-specification:'Liberation Sans Bold';text-align:center;writing-mode:lr-tb;text-anchor:middle"
           id="path5665" />
        <path
           d="m -415.85449,225.6597 q -2.14234,0 -3.86353,-0.62256 -1.70288,-0.64087 -2.91137,-1.9226 -1.2085,-1.30005 -1.84937,-3.24097 -0.64087,-1.95923 -0.64087,-4.57764 0,-2.83813 0.75073,-4.77905 0.76905,-1.94092 2.05078,-3.1311 1.30005,-1.2085 2.98462,-1.73951 1.68457,-0.531 3.55225,-0.531 2.34375,0 3.9917,0.82397 1.66626,0.80567 2.72827,2.27051 1.06201,1.46484 1.5564,3.51563 0.49438,2.03247 0.49438,4.50439 l 0,0.14648 -12.70752,0 q 0,1.24512 0.21973,2.32544 0.21973,1.06202 0.71411,1.84937 0.49439,0.76904 1.28174,1.22681 0.78735,0.43945 1.9043,0.43945 1.35498,0 2.21557,-0.56763 0.8606,-0.58594 1.22681,-1.79443 l 4.85229,0.42114 q -0.32959,0.84229 -0.93383,1.79443 -0.58594,0.95215 -1.57471,1.75782 -0.98877,0.78735 -2.47193,1.31836 -1.46484,0.51269 -3.57055,0.51269 z m 0,-17.30346 q -0.78736,0 -1.48316,0.27465 -0.67749,0.25635 -1.19018,0.84229 -0.49439,0.56763 -0.80567,1.48315 -0.31128,0.91553 -0.3479,2.19727 l 7.69043,0 q -0.14648,-2.39868 -1.15356,-3.58887 -1.00708,-1.20849 -2.70996,-1.20849 z"
           style="font-style:normal;font-variant:normal;font-weight:bold;font-stretch:normal;font-size:37.5px;line-height:125%;font-family:'Liberation Sans';-inkscape-font-specification:'Liberation Sans Bold';text-align:center;writing-mode:lr-tb;text-anchor:middle"
           id="path5667" />
        <path
           d="m -403.09204,225.29349 0,-15.16113 q 0,-0.64087 -0.0183,-1.35498 0,-0.71411 -0.0366,-1.35498 -0.0183,-0.65918 -0.0366,-1.17188 -0.0183,-0.531 -0.0549,-0.76904 l 4.90723,0 q 0.0366,0.21973 0.0732,0.76904 0.0366,0.53101 0.0732,1.17188 0.0366,0.64087 0.0549,1.28174 0.0366,0.62255 0.0366,1.00708 l 0.0732,0 q 0.38452,-1.08033 0.76904,-1.92261 0.38452,-0.8606 0.89722,-1.44653 0.53101,-0.60425 1.26343,-0.91553 0.73242,-0.32959 1.81274,-0.32959 0.45777,0 0.89722,0.0916 0.45776,0.0732 0.6958,0.18311 l 0,4.30297 q -0.49439,-0.10986 -1.00708,-0.1831 -0.49439,-0.0916 -1.19019,-0.0916 -1.9226,0 -3.00293,1.55639 -1.06201,1.5564 -1.06201,4.61426 l 0,9.7229 -5.14526,0 z"
           style="font-style:normal;font-variant:normal;font-weight:bold;font-stretch:normal;font-size:37.5px;line-height:125%;font-family:'Liberation Sans';-inkscape-font-specification:'Liberation Sans Bold';text-align:center;writing-mode:lr-tb;text-anchor:middle"
           id="path5669" />
        <path
           d="m -360.37354,225.29349 -9.26513,-11.84692 -3.18604,2.4353 0,9.41162 -5.40161,0 0,-25.79956 5.40161,0 0,11.70044 11.6272,-11.70044 6.29883,0 -11.02295,10.91309 11.92017,14.88647 -6.37208,0 z"
           style="font-style:normal;font-variant:normal;font-weight:bold;font-stretch:normal;font-size:37.5px;line-height:125%;font-family:'Liberation Sans';-inkscape-font-specification:'Liberation Sans Bold';text-align:center;writing-mode:lr-tb;text-anchor:middle"
           id="path5671" />
        <path
           d="m -332.1936,215.36917 q 0,2.27051 -0.64087,4.1565 -0.62256,1.88599 -1.88599,3.25928 -1.26343,1.35498 -3.14941,2.12402 -1.88599,0.75073 -4.39453,0.75073 -2.417,0 -4.26636,-0.75073 -1.84937,-0.75073 -3.11279,-2.10571 -1.24512,-1.35498 -1.88599,-3.24097 -0.64087,-1.9043 -0.64087,-4.19312 0,-2.21557 0.60425,-4.08325 0.62256,-1.88598 1.86767,-3.25927 1.24512,-1.3733 3.13111,-2.14234 1.88598,-0.76904 4.41284,-0.76904 2.67334,0 4.55933,0.76904 1.88598,0.76904 3.07617,2.14234 1.20849,1.35498 1.75781,3.24096 0.56763,1.86768 0.56763,4.10156 z m -5.3833,0 q 0,-3.53393 -1.15357,-5.12695 -1.15356,-1.59302 -3.35083,-1.59302 -2.27051,0 -3.479,1.61133 -1.2085,1.61133 -1.2085,5.10864 0,1.77613 0.31128,3.05787 0.32959,1.28173 0.91553,2.10571 0.58594,0.82397 1.40991,1.22681 0.82397,0.38452 1.81274,0.38452 1.13526,0 2.01416,-0.38452 0.89722,-0.40284 1.50147,-1.22681 0.60425,-0.82398 0.91553,-2.10571 0.31128,-1.28174 0.31128,-3.05787 z"
           style="font-style:normal;font-variant:normal;font-weight:bold;font-stretch:normal;font-size:37.5px;line-height:125%;font-family:'Liberation Sans';-inkscape-font-specification:'Liberation Sans Bold';text-align:center;writing-mode:lr-tb;text-anchor:middle"
           id="path5673" />
        <path
           d="m -316.42822,225.29349 0,-11.1145 q 0,-1.15357 -0.1648,-2.10571 -0.14648,-0.97046 -0.51269,-1.64795 -0.3479,-0.6958 -0.93384,-1.08033 -0.56763,-0.38452 -1.3916,-0.38452 -0.78736,0 -1.42822,0.42115 -0.64087,0.40283 -1.11695,1.17187 -0.45776,0.75073 -0.71411,1.81275 -0.25635,1.0437 -0.25635,2.30712 l 0,10.62012 -5.14526,0 0,-15.38086 q 0,-0.64087 -0.0183,-1.31836 0,-0.67749 -0.0366,-1.28174 -0.0183,-0.62255 -0.0366,-1.09863 -0.0183,-0.49438 -0.0549,-0.73242 l 4.90723,0 q 0.0366,0.21973 0.0732,0.71411 0.0366,0.47608 0.0732,1.06201 0.0366,0.58594 0.0549,1.17188 0.0366,0.58594 0.0366,0.98877 l 0.0732,0 q 0.95215,-2.27051 2.36206,-3.2959 1.42822,-1.02539 3.40576,-1.02539 2.27051,0 3.6438,1.11694 1.3916,1.09863 1.86768,3.20435 l 0.10986,0 q 0.53101,-1.22681 1.13525,-2.05078 0.62256,-0.82398 1.35499,-1.31836 0.75073,-0.5127 1.61132,-0.73243 0.87891,-0.21972 1.9043,-0.21972 1.62964,0 2.74658,0.58594 1.13526,0.58593 1.83106,1.61132 0.71411,1.02539 1.02539,2.417 0.32959,1.3916 0.32959,3.00293 l 0,12.57934 -5.10865,0 0,-11.1145 q 0,-1.15357 -0.16479,-2.10571 -0.14648,-0.97046 -0.5127,-1.64795 -0.3479,-0.6958 -0.93383,-1.08033 -0.56763,-0.38452 -1.39161,-0.38452 -0.76904,0 -1.40991,0.40284 -0.62256,0.38452 -1.09863,1.11694 -0.45776,0.71411 -0.71411,1.72119 -0.25635,1.00708 -0.29297,2.23389 l 0,10.85815 -5.10864,0 z"
           style="font-style:normal;font-variant:normal;font-weight:bold;font-stretch:normal;font-size:37.5px;line-height:125%;font-family:'Liberation Sans';-inkscape-font-specification:'Liberation Sans Bold';text-align:center;writing-mode:lr-tb;text-anchor:middle"
           id="path5675" />
        <path
           d="m -276.01685,215.31424 q 0,2.2522 -0.45776,4.1565 -0.43945,1.88598 -1.37329,3.27759 -0.93384,1.37329 -2.38037,2.14233 -1.42822,0.76904 -3.38745,0.76904 -0.87891,0 -1.75782,-0.1831 -0.8789,-0.18311 -1.66625,-0.60425 -0.78736,-0.42114 -1.44654,-1.09863 -0.65918,-0.67749 -1.13525,-1.66626 l -0.0366,0 q 0,0.38452 -0.0366,0.8789 -0.0183,0.49439 -0.0549,0.97046 -0.0366,0.45776 -0.0916,0.82398 -0.0366,0.36621 -0.0732,0.51269 l -4.99878,0 q 0.0549,-0.64087 0.0915,-1.81274 0.0549,-1.19019 0.0549,-2.70996 l 0,-22.65015 5.14527,0 0,7.58057 q 0,0.58593 -0.0183,1.15356 0,0.54932 -0.0183,1.02539 -0.0183,0.54932 -0.0366,1.0437 l 0.0732,0 q 0.93384,-2.05078 2.56347,-2.92969 1.62964,-0.8789 3.77198,-0.8789 1.90429,0 3.27759,0.76904 1.37329,0.75073 2.25219,2.12402 0.89722,1.35499 1.31836,3.22266 0.42114,1.86768 0.42114,4.08325 z m -5.36499,0 q 0,-3.36914 -0.98877,-4.99878 -0.98876,-1.62963 -3.05786,-1.62963 -0.78735,0 -1.55639,0.31127 -0.76905,0.31128 -1.37329,1.09864 -0.60425,0.76904 -0.97046,2.0874 -0.36621,1.30005 -0.36621,3.2959 0,1.94092 0.36621,3.22265 0.36621,1.28174 0.95215,2.05079 0.58593,0.76904 1.35498,1.08032 0.76904,0.31128 1.55639,0.31128 1.95923,0 3.02124,-1.61133 1.06201,-1.62964 1.06201,-5.21851 z"
           style="font-style:normal;font-variant:normal;font-weight:bold;font-stretch:normal;font-size:37.5px;line-height:125%;font-family:'Liberation Sans';-inkscape-font-specification:'Liberation Sans Bold';text-align:center;writing-mode:lr-tb;text-anchor:middle"
           id="path5677" />
        <path
           d="m -271.84204,201.91092 0,-3.79028 5.14526,0 0,3.79028 -5.14526,0 z m 0,23.38257 0,-19.81201 5.14526,0 0,19.81201 -5.14526,0 z"
           style="font-style:normal;font-variant:normal;font-weight:bold;font-stretch:normal;font-size:37.5px;line-height:125%;font-family:'Liberation Sans';-inkscape-font-specification:'Liberation Sans Bold';text-align:center;writing-mode:lr-tb;text-anchor:middle"
           id="path5679" />
        <path
           d="m -248.60596,225.29349 0,-11.1145 q 0,-1.15357 -0.1831,-2.10571 -0.18311,-0.97046 -0.60425,-1.64795 -0.42114,-0.6958 -1.09863,-1.08033 -0.67749,-0.38452 -1.64795,-0.38452 -0.93384,0 -1.70288,0.42115 -0.75074,0.40283 -1.30005,1.17187 -0.54932,0.75073 -0.8606,1.81275 -0.29297,1.0437 -0.29297,2.30712 l 0,10.62012 -5.14526,0 0,-15.38086 q 0,-0.64087 -0.0183,-1.31836 0,-0.67749 -0.0366,-1.28174 -0.0183,-0.62255 -0.0366,-1.09863 -0.0183,-0.49438 -0.0549,-0.73242 l 4.90722,0 q 0.0366,0.21973 0.0732,0.71411 0.0366,0.47608 0.0732,1.06201 0.0366,0.58594 0.0549,1.17188 0.0366,0.58594 0.0366,0.98877 l 0.0732,0 q 1.0437,-2.27051 2.61841,-3.2959 1.57471,-1.02539 3.75366,-1.02539 1.79444,0 3.02124,0.58594 1.24512,0.58593 2.01416,1.61132 0.78736,1.02539 1.13526,2.417 0.3479,1.3916 0.3479,3.00293 l 0,12.57934 -5.12696,0 z"
           style="font-style:normal;font-variant:normal;font-weight:bold;font-stretch:normal;font-size:37.5px;line-height:125%;font-family:'Liberation Sans';-inkscape-font-specification:'Liberation Sans Bold';text-align:center;writing-mode:lr-tb;text-anchor:middle"
           id="path5681" />
        <path
           d="m -238.51685,201.91092 0,-3.79028 5.14527,0 0,3.79028 -5.14527,0 z m 0,23.38257 0,-19.81201 5.14527,0 0,19.81201 -5.14527,0 z"
           style="font-style:normal;font-variant:normal;font-weight:bold;font-stretch:normal;font-size:37.5px;line-height:125%;font-family:'Liberation Sans';-inkscape-font-specification:'Liberation Sans Bold';text-align:center;writing-mode:lr-tb;text-anchor:middle"
           id="path5683" />
        <path
           d="m -220.00488,225.6597 q -2.14234,0 -3.86353,-0.62256 -1.70288,-0.64087 -2.91138,-1.9226 -1.20849,-1.30005 -1.84936,-3.24097 -0.64087,-1.95923 -0.64087,-4.57764 0,-2.83813 0.75073,-4.77905 0.76905,-1.94092 2.05078,-3.1311 1.30005,-1.2085 2.98462,-1.73951 1.68457,-0.531 3.55225,-0.531 2.34375,0 3.9917,0.82397 1.66626,0.80567 2.72827,2.27051 1.06201,1.46484 1.5564,3.51563 0.49438,2.03247 0.49438,4.50439 l 0,0.14648 -12.70752,0 q 0,1.24512 0.21973,2.32544 0.21972,1.06202 0.71411,1.84937 0.49438,0.76904 1.28174,1.22681 0.78735,0.43945 1.90429,0.43945 1.35499,0 2.21558,-0.56763 0.8606,-0.58594 1.22681,-1.79443 l 4.85229,0.42114 q -0.32959,0.84229 -0.93384,1.79443 -0.58593,0.95215 -1.5747,1.75782 -0.98877,0.78735 -2.47193,1.31836 -1.46484,0.51269 -3.57055,0.51269 z m 0,-17.30346 q -0.78736,0 -1.48316,0.27465 -0.67749,0.25635 -1.19018,0.84229 -0.49439,0.56763 -0.80567,1.48315 -0.31128,0.91553 -0.3479,2.19727 l 7.69043,0 q -0.14648,-2.39868 -1.15356,-3.58887 -1.00708,-1.20849 -2.70996,-1.20849 z"
           style="font-style:normal;font-variant:normal;font-weight:bold;font-stretch:normal;font-size:37.5px;line-height:125%;font-family:'Liberation Sans';-inkscape-font-specification:'Liberation Sans Bold';text-align:center;writing-mode:lr-tb;text-anchor:middle"
           id="path5685" />
        <path
           d="m -207.24243,225.29349 0,-15.16113 q 0,-0.64087 -0.0183,-1.35498 0,-0.71411 -0.0366,-1.35498 -0.0183,-0.65918 -0.0366,-1.17188 -0.0183,-0.531 -0.0549,-0.76904 l 4.90723,0 q 0.0366,0.21973 0.0732,0.76904 0.0366,0.53101 0.0732,1.17188 0.0366,0.64087 0.0549,1.28174 0.0366,0.62255 0.0366,1.00708 l 0.0732,0 q 0.38452,-1.08033 0.76904,-1.92261 0.38452,-0.8606 0.89722,-1.44653 0.53101,-0.60425 1.26343,-0.91553 0.73242,-0.32959 1.81274,-0.32959 0.45777,0 0.89722,0.0916 0.45776,0.0732 0.6958,0.18311 l 0,4.30297 q -0.49439,-0.10986 -1.00708,-0.1831 -0.49439,-0.0916 -1.19019,-0.0916 -1.9226,0 -3.00293,1.55639 -1.06201,1.5564 -1.06201,4.61426 l 0,9.7229 -5.14526,0 z"
           style="font-style:normal;font-variant:normal;font-weight:bold;font-stretch:normal;font-size:37.5px;line-height:125%;font-family:'Liberation Sans';-inkscape-font-specification:'Liberation Sans Bold';text-align:center;writing-mode:lr-tb;text-anchor:middle"
           id="path5687" />
        <path
           d="m -173.91724,215.31424 q 0,2.2522 -0.45776,4.1565 -0.43945,1.88598 -1.37329,3.27759 -0.93384,1.37329 -2.38037,2.14233 -1.42822,0.76904 -3.38745,0.76904 -0.87891,0 -1.75782,-0.1831 -0.8789,-0.18311 -1.66626,-0.60425 -0.78735,-0.42114 -1.44653,-1.09863 -0.65918,-0.67749 -1.13525,-1.66626 l -0.0366,0 q 0,0.38452 -0.0366,0.8789 -0.0183,0.49439 -0.0549,0.97046 -0.0366,0.45776 -0.0916,0.82398 -0.0366,0.36621 -0.0732,0.51269 l -4.99878,0 q 0.0549,-0.64087 0.0915,-1.81274 0.0549,-1.19019 0.0549,-2.70996 l 0,-22.65015 5.14527,0 0,7.58057 q 0,0.58593 -0.0183,1.15356 0,0.54932 -0.0183,1.02539 -0.0183,0.54932 -0.0366,1.0437 l 0.0732,0 q 0.93384,-2.05078 2.56347,-2.92969 1.62964,-0.8789 3.77198,-0.8789 1.90429,0 3.27758,0.76904 1.3733,0.75073 2.2522,2.12402 0.89722,1.35499 1.31836,3.22266 0.42114,1.86768 0.42114,4.08325 z m -5.36499,0 q 0,-3.36914 -0.98877,-4.99878 -0.98877,-1.62963 -3.05786,-1.62963 -0.78735,0 -1.55639,0.31127 -0.76905,0.31128 -1.37329,1.09864 -0.60425,0.76904 -0.97046,2.0874 -0.36621,1.30005 -0.36621,3.2959 0,1.94092 0.36621,3.22265 0.36621,1.28174 0.95214,2.05079 0.58594,0.76904 1.35499,1.08032 0.76904,0.31128 1.55639,0.31128 1.95923,0 3.02124,-1.61133 1.06201,-1.62964 1.06201,-5.21851 z"
           style="font-style:normal;font-variant:normal;font-weight:bold;font-stretch:normal;font-size:37.5px;line-height:125%;font-family:'Liberation Sans';-inkscape-font-specification:'Liberation Sans Bold';text-align:center;writing-mode:lr-tb;text-anchor:middle"
           id="path5689" />
        <path
           d="m -165.16479,225.6597 q -1.42823,0 -2.56348,-0.38452 -1.11694,-0.40283 -1.9043,-1.15356 -0.78735,-0.76905 -1.20849,-1.88599 -0.42115,-1.11694 -0.42115,-2.54517 0,-1.75781 0.60425,-2.94799 0.62256,-1.2085 1.68457,-1.94092 1.06201,-0.75073 2.49024,-1.08032 1.42822,-0.3479 3.03955,-0.36622 l 4.26635,-0.0732 0,-1.00708 q 0,-1.08032 -0.20141,-1.79443 -0.18311,-0.73242 -0.54932,-1.19019 -0.36621,-0.45776 -0.91553,-0.64087 -0.531,-0.20141 -1.2268,-0.20141 -0.64087,0 -1.15357,0.12817 -0.49438,0.12818 -0.86059,0.45777 -0.36621,0.31127 -0.60425,0.86059 -0.21973,0.53101 -0.31128,1.35498 l -5.36499,-0.25635 q 0.21973,-1.30004 0.80566,-2.36206 0.58594,-1.08032 1.61133,-1.86767 1.0437,-0.78736 2.54517,-1.2085 1.51977,-0.43945 3.55224,-0.43945 1.84937,0 3.2959,0.45776 1.44654,0.45777 2.45362,1.37329 1.00708,0.89722 1.53808,2.21558 0.53101,1.31836 0.53101,3.05786 l 0,7.21436 q 0,0.6958 0.0549,1.24511 0.0732,0.54932 0.23804,0.93384 0.1831,0.36621 0.49438,0.56763 0.32959,0.1831 0.84229,0.1831 0.58593,0 1.13525,-0.10986 l 0,2.7832 q -0.45776,0.10987 -0.82397,0.20142 -0.36622,0.0915 -0.73243,0.14648 -0.36621,0.0549 -0.78735,0.0916 -0.40283,0.0366 -0.95215,0.0366 -1.94092,0 -2.87475,-0.95215 -0.91553,-0.95215 -1.09864,-2.80151 l -0.10986,0 q -1.02539,1.84936 -2.63672,2.87475 -1.59302,1.02539 -3.88183,1.02539 z m 5.98754,-9.53979 -2.63671,0.0366 q -0.82398,0.0366 -1.57471,0.14648 -0.73242,0.0916 -1.30005,0.42115 -0.54932,0.31127 -0.87891,0.91552 -0.32959,0.60425 -0.32959,1.64795 0,1.40991 0.64087,2.10571 0.65918,0.67749 1.7395,0.67749 0.98877,0 1.79444,-0.42114 0.80566,-0.42114 1.35498,-1.09863 0.56763,-0.6958 0.8789,-1.59302 0.31128,-0.89721 0.31128,-1.83105 l 0,-1.00708 z"
           style="font-style:normal;font-variant:normal;font-weight:bold;font-stretch:normal;font-size:37.5px;line-height:125%;font-family:'Liberation Sans';-inkscape-font-specification:'Liberation Sans Bold';text-align:center;writing-mode:lr-tb;text-anchor:middle"
           id="path5691" />
        <path
           d="m -148.86841,225.29349 0,-15.16113 q 0,-0.64087 -0.0183,-1.35498 0,-0.71411 -0.0366,-1.35498 -0.0183,-0.65918 -0.0366,-1.17188 -0.0183,-0.531 -0.0549,-0.76904 l 4.90722,0 q 0.0366,0.21973 0.0733,0.76904 0.0366,0.53101 0.0732,1.17188 0.0366,0.64087 0.0549,1.28174 0.0366,0.62255 0.0366,1.00708 l 0.0732,0 q 0.38452,-1.08033 0.76905,-1.92261 0.38452,-0.8606 0.89721,-1.44653 0.53101,-0.60425 1.26343,-0.91553 0.73242,-0.32959 1.81274,-0.32959 0.45777,0 0.89722,0.0916 0.45777,0.0732 0.6958,0.18311 l 0,4.30297 q -0.49438,-0.10986 -1.00708,-0.1831 -0.49438,-0.0916 -1.19018,-0.0916 -1.92261,0 -3.00293,1.55639 -1.06201,1.5564 -1.06201,4.61426 l 0,9.7229 -5.14527,0 z"
           style="font-style:normal;font-variant:normal;font-weight:bold;font-stretch:normal;font-size:37.5px;line-height:125%;font-family:'Liberation Sans';-inkscape-font-specification:'Liberation Sans Bold';text-align:center;writing-mode:lr-tb;text-anchor:middle"
           id="path5693" />
        <path
           d="m -121.64063,225.29349 -5.29174,-8.97217 -2.21558,1.53809 0,7.43408 -5.14526,0 0,-27.17285 5.14526,0 0,15.56396 7.06787,-8.20312 5.52979,0 -6.95801,7.72705 7.48901,12.08496 -5.62134,0 z"
           style="font-style:normal;font-variant:normal;font-weight:bold;font-stretch:normal;font-size:37.5px;line-height:125%;font-family:'Liberation Sans';-inkscape-font-specification:'Liberation Sans Bold';text-align:center;writing-mode:lr-tb;text-anchor:middle"
           id="path5695" />
        <path
           d="m -105.30762,225.6597 q -2.14233,0 -3.86352,-0.62256 -1.70288,-0.64087 -2.91138,-1.9226 -1.2085,-1.30005 -1.84936,-3.24097 -0.64087,-1.95923 -0.64087,-4.57764 0,-2.83813 0.75073,-4.77905 0.76904,-1.94092 2.05078,-3.1311 1.30005,-1.2085 2.98462,-1.73951 1.68457,-0.531 3.55224,-0.531 2.34375,0 3.9917,0.82397 1.666264,0.80567 2.728276,2.27051 1.062011,1.46484 1.556396,3.51563 0.494385,2.03247 0.494385,4.50439 l 0,0.14648 -12.707517,0 q 0,1.24512 0.21972,2.32544 0.21973,1.06202 0.71412,1.84937 0.49438,0.76904 1.28173,1.22681 0.78736,0.43945 1.9043,0.43945 1.35498,0 2.21558,-0.56763 0.86059,-0.58594 1.2268,-1.79443 l 4.852298,0.42114 q -0.32959,0.84229 -0.933838,1.79443 -0.585937,0.95215 -1.574707,1.75782 -0.988773,0.78735 -2.471923,1.31836 -1.46484,0.51269 -3.57056,0.51269 z m 0,-17.30346 q -0.78735,0 -1.48315,0.27465 -0.67749,0.25635 -1.19019,0.84229 -0.49438,0.56763 -0.80566,1.48315 -0.31128,0.91553 -0.3479,2.19727 l 7.69043,0 q -0.14649,-2.39868 -1.15357,-3.58887 -1.00708,-1.20849 -2.70996,-1.20849 z"
           style="font-style:normal;font-variant:normal;font-weight:bold;font-stretch:normal;font-size:37.5px;line-height:125%;font-family:'Liberation Sans';-inkscape-font-specification:'Liberation Sans Bold';text-align:center;writing-mode:lr-tb;text-anchor:middle"
           id="path5697" />
        <path
           d="m -92.545166,201.91092 0,-3.79028 5.145264,0 0,3.79028 -5.145264,0 z m 0,23.38257 0,-19.81201 5.145264,0 0,19.81201 -5.145264,0 z"
           style="font-style:normal;font-variant:normal;font-weight:bold;font-stretch:normal;font-size:37.5px;line-height:125%;font-family:'Liberation Sans';-inkscape-font-specification:'Liberation Sans Bold';text-align:center;writing-mode:lr-tb;text-anchor:middle"
           id="path5699" />
        <path
           d="m -77.072754,225.62308 q -2.270508,0 -3.497314,-1.22681 -1.226807,-1.24511 -1.226807,-3.75366 l 0,-11.68213 -2.508545,0 0,-3.479 2.764893,0 1.611328,-4.65088 3.222656,0 0,4.65088 3.753662,0 0,3.479 -3.753662,0 0,10.29053 q 0,1.44653 0.549316,2.14233 0.549317,0.67749 1.702881,0.67749 0.476075,0 0.860596,-0.0732 0.384521,-0.0732 0.860596,-0.1831 l 0,3.18603 q -0.952149,0.31128 -2.01416,0.45777 -1.062012,0.16479 -2.32544,0.16479 z"
           style="font-style:normal;font-variant:normal;font-weight:bold;font-stretch:normal;font-size:37.5px;line-height:125%;font-family:'Liberation Sans';-inkscape-font-specification:'Liberation Sans Bold';text-align:center;writing-mode:lr-tb;text-anchor:middle"
           id="path5701" />
      </g>
      <g
         id="g4765"
         transform="translate(0,492.33508)">
        <rect
           style="color:#000000;clip-rule:nonzero;display:inline;overflow:visible;visibility:visible;opacity:0.21300001;isolation:auto;mix-blend-mode:normal;color-interpolation:sRGB;color-interpolation-filters:linearRGB;solid-color:#000000;solid-opacity:1;fill:url(#linearGradient5611);fill-opacity:1;fill-rule:evenodd;stroke:none;stroke-width:1.98859394px;stroke-linecap:butt;stroke-linejoin:miter;stroke-miterlimit:4;stroke-dasharray:none;stroke-dashoffset:0;stroke-opacity:1;marker:none;filter:url(#filter4730);color-rendering:auto;image-rendering:auto;shape-rendering:auto;text-rendering:auto;enable-background:accumulate"
           id="rect4767"
           width="37.375645"
           height="18.182745"
           x="1031.8517"
           y="231.99693"
           transform="matrix(1.0535847,0,0,0.99904812,-56.292847,0.22948815)" />
        <rect
           transform="matrix(1.050292,0,0,-1.3954459,-52.833756,684.71642)"
           y="231.99693"
           x="1031.8517"
           height="18.182745"
           width="37.375645"
           id="rect4769"
           style="color:#000000;clip-rule:nonzero;display:inline;overflow:visible;visibility:visible;opacity:0.50199998;isolation:auto;mix-blend-mode:normal;color-interpolation:sRGB;color-interpolation-filters:linearRGB;solid-color:#000000;solid-opacity:1;fill:url(#linearGradient4744);fill-opacity:1;fill-rule:evenodd;stroke:none;stroke-width:1.98859394px;stroke-linecap:butt;stroke-linejoin:miter;stroke-miterlimit:4;stroke-dasharray:none;stroke-dashoffset:0;stroke-opacity:1;marker:none;filter:url(#filter4730);color-rendering:auto;image-rendering:auto;shape-rendering:auto;text-rendering:auto;enable-background:accumulate" />
      </g>
      <path
         sodipodi:nodetypes="cccccc"
         inkscape:connector-curvature="0"
         id="path4644"
         d="m 1092.624,732.38805 -340.80518,1.01015 -69.23206,42.86468 74.0233,49.63647 338.61074,7.07107 z"
         style="opacity:1;fill:url(#linearGradient4646);fill-opacity:1;fill-rule:evenodd;stroke:none;stroke-width:1.98859394px;stroke-linecap:butt;stroke-linejoin:miter;stroke-opacity:1" />
      <g
         transform="translate(1212.0769,614.70762)"
         style="font-style:normal;font-variant:normal;font-weight:normal;font-stretch:normal;font-size:22.09246063px;line-height:125%;font-family:Arial;-inkscape-font-specification:Arial;text-align:center;letter-spacing:0px;word-spacing:0px;writing-mode:tb-rl;text-anchor:middle;fill:#000000;fill-opacity:1;stroke:none;stroke-width:1px;stroke-linecap:butt;stroke-linejoin:miter;stroke-opacity:1;filter:url(#filter4815)"
         id="flowRoot5222">
        <path
           d="m -433.44946,174.53666 q 1.51977,0 2.61841,-0.42115 1.11694,-0.43945 1.9226,-1.13525 0.82398,-0.6958 1.35498,-1.57471 0.54932,-0.8789 0.89722,-1.77612 l 4.70581,1.77612 q -0.56763,1.3916 -1.48315,2.72827 -0.91553,1.33667 -2.28882,2.36206 -1.37329,1.02539 -3.27759,1.66626 -1.88599,0.62256 -4.44946,0.62256 -3.35083,0 -5.80445,-0.98877 -2.45361,-1.00708 -4.06494,-2.7832 -1.59302,-1.79443 -2.38037,-4.24805 -0.76904,-2.45361 -0.76904,-5.36499 0,-3.02124 0.76904,-5.45654 0.78735,-2.4353 2.36206,-4.13818 1.57471,-1.7212 3.97339,-2.63672 2.41699,-0.93384 5.67627,-0.93384 2.52686,0 4.41284,0.53101 1.9043,0.531 3.27759,1.50146 1.3916,0.95215 2.28882,2.27051 0.91553,1.30005 1.42822,2.87475 l -4.76074,1.30005 q -0.25635,-0.82397 -0.78735,-1.5747 -0.53101,-0.76905 -1.35499,-1.35499 -0.80566,-0.58593 -1.90429,-0.93383 -1.09864,-0.36621 -2.49024,-0.36621 -1.95923,0 -3.36914,0.64087 -1.40991,0.62255 -2.32544,1.79443 -0.89721,1.17187 -1.33667,2.81982 -0.42114,1.62964 -0.42114,3.66211 0,2.01416 0.42114,3.69873 0.43946,1.66626 1.35498,2.87476 0.91553,1.20849 2.34375,1.88599 1.44654,0.67749 3.4607,0.67749 z"
           style="font-style:normal;font-variant:normal;font-weight:bold;font-stretch:normal;font-size:37.5px;line-height:125%;font-family:'Liberation Sans';-inkscape-font-specification:'Liberation Sans Bold';text-align:center;writing-mode:lr-tb;text-anchor:middle"
           id="path5704" />
        <path
           d="m -399.46509,168.49417 q 0,2.27051 -0.64087,4.1565 -0.62256,1.88599 -1.88598,3.25928 -1.26343,1.35498 -3.14942,2.12402 -1.88598,0.75073 -4.39453,0.75073 -2.41699,0 -4.26636,-0.75073 -1.84936,-0.75073 -3.11279,-2.10571 -1.24512,-1.35498 -1.88599,-3.24097 -0.64086,-1.9043 -0.64086,-4.19312 0,-2.21557 0.60424,-4.08325 0.62256,-1.88598 1.86768,-3.25927 1.24512,-1.3733 3.1311,-2.14234 1.88599,-0.76904 4.41284,-0.76904 2.67334,0 4.55933,0.76904 1.88599,0.76904 3.07617,2.14234 1.2085,1.35498 1.75782,3.24096 0.56762,1.86768 0.56762,4.10156 z m -5.3833,0 q 0,-3.53393 -1.15356,-5.12695 -1.15357,-1.59302 -3.35083,-1.59302 -2.27051,0 -3.47901,1.61133 -1.20849,1.61133 -1.20849,5.10864 0,1.77613 0.31128,3.05787 0.32959,1.28173 0.91552,2.10571 0.58594,0.82397 1.40992,1.22681 0.82397,0.38452 1.81274,0.38452 1.13525,0 2.01416,-0.38452 0.89722,-0.40284 1.50146,-1.22681 0.60425,-0.82398 0.91553,-2.10571 0.31128,-1.28174 0.31128,-3.05787 z"
           style="font-style:normal;font-variant:normal;font-weight:bold;font-stretch:normal;font-size:37.5px;line-height:125%;font-family:'Liberation Sans';-inkscape-font-specification:'Liberation Sans Bold';text-align:center;writing-mode:lr-tb;text-anchor:middle"
           id="path5706" />
        <path
           d="m -382.52783,178.41849 0,-11.1145 q 0,-1.15357 -0.18311,-2.10571 -0.1831,-0.97046 -0.60425,-1.64795 -0.42114,-0.6958 -1.09863,-1.08033 -0.67749,-0.38452 -1.64795,-0.38452 -0.93384,0 -1.70288,0.42115 -0.75073,0.40283 -1.30005,1.17187 -0.54931,0.75073 -0.86059,1.81275 -0.29297,1.0437 -0.29297,2.30712 l 0,10.62012 -5.14527,0 0,-15.38086 q 0,-0.64087 -0.0183,-1.31836 0,-0.67749 -0.0366,-1.28174 -0.0183,-0.62255 -0.0366,-1.09863 -0.0183,-0.49438 -0.0549,-0.73242 l 4.90723,0 q 0.0366,0.21973 0.0732,0.71411 0.0366,0.47608 0.0732,1.06201 0.0366,0.58594 0.0549,1.17188 0.0366,0.58594 0.0366,0.98877 l 0.0733,0 q 1.0437,-2.27051 2.6184,-3.2959 1.57471,-1.02539 3.75367,-1.02539 1.79443,0 3.02124,0.58594 1.24511,0.58593 2.01416,1.61132 0.78735,1.02539 1.13525,2.417 0.3479,1.3916 0.3479,3.00293 l 0,12.57934 -5.12695,0 z"
           style="font-style:normal;font-variant:normal;font-weight:bold;font-stretch:normal;font-size:37.5px;line-height:125%;font-family:'Liberation Sans';-inkscape-font-specification:'Liberation Sans Bold';text-align:center;writing-mode:lr-tb;text-anchor:middle"
           id="path5708" />
        <path
           d="m -367.3667,178.74808 q -2.27051,0 -3.49731,-1.22681 -1.22681,-1.24511 -1.22681,-3.75366 l 0,-11.68213 -2.50855,0 0,-3.479 2.7649,0 1.61133,-4.65088 3.22265,0 0,4.65088 3.75366,0 0,3.479 -3.75366,0 0,10.29053 q 0,1.44653 0.54932,2.14233 0.54931,0.67749 1.70288,0.67749 0.47607,0 0.86059,-0.0732 0.38453,-0.0732 0.8606,-0.1831 l 0,3.18603 q -0.95215,0.31128 -2.01416,0.45777 -1.06201,0.16479 -2.32544,0.16479 z"
           style="font-style:normal;font-variant:normal;font-weight:bold;font-stretch:normal;font-size:37.5px;line-height:125%;font-family:'Liberation Sans';-inkscape-font-specification:'Liberation Sans Bold';text-align:center;writing-mode:lr-tb;text-anchor:middle"
           id="path5710" />
        <path
           d="m -355.33667,178.7847 q -1.42822,0 -2.56348,-0.38452 -1.11694,-0.40283 -1.90429,-1.15356 -0.78736,-0.76905 -1.2085,-1.88599 -0.42114,-1.11694 -0.42114,-2.54517 0,-1.75781 0.60425,-2.94799 0.62255,-1.2085 1.68457,-1.94092 1.06201,-0.75073 2.49023,-1.08032 1.42822,-0.3479 3.03955,-0.36622 l 4.26636,-0.0732 0,-1.00708 q 0,-1.08032 -0.20142,-1.79443 -0.1831,-0.73242 -0.54931,-1.19019 -0.36621,-0.45776 -0.91553,-0.64087 -0.53101,-0.20141 -1.22681,-0.20141 -0.64087,0 -1.15356,0.12817 -0.49439,0.12818 -0.8606,0.45777 -0.36621,0.31127 -0.60425,0.86059 -0.21972,0.53101 -0.31127,1.35498 l -5.365,-0.25635 q 0.21973,-1.30004 0.80567,-2.36206 0.58594,-1.08032 1.61133,-1.86767 1.0437,-0.78736 2.54516,-1.2085 1.51978,-0.43945 3.55225,-0.43945 1.84936,0 3.2959,0.45776 1.44653,0.45777 2.45361,1.37329 1.00708,0.89722 1.53809,2.21558 0.531,1.31836 0.531,3.05786 l 0,7.21436 q 0,0.6958 0.0549,1.24511 0.0733,0.54932 0.23804,0.93384 0.18311,0.36621 0.49439,0.56763 0.32959,0.1831 0.84228,0.1831 0.58594,0 1.13526,-0.10986 l 0,2.7832 q -0.45777,0.10987 -0.82398,0.20142 -0.36621,0.0915 -0.73242,0.14648 -0.36621,0.0549 -0.78735,0.0916 -0.40284,0.0366 -0.95215,0.0366 -1.94092,0 -2.87476,-0.95215 -0.91553,-0.95215 -1.09863,-2.80151 l -0.10987,0 q -1.02539,1.84936 -2.63671,2.87475 -1.59302,1.02539 -3.88184,1.02539 z m 5.98755,-9.53979 -2.63672,0.0366 q -0.82397,0.0366 -1.57471,0.14648 -0.73242,0.0916 -1.30005,0.42115 -0.54931,0.31127 -0.8789,0.91552 -0.32959,0.60425 -0.32959,1.64795 0,1.40991 0.64087,2.10571 0.65918,0.67749 1.7395,0.67749 0.98877,0 1.79443,-0.42114 0.80567,-0.42114 1.35498,-1.09863 0.56763,-0.6958 0.87891,-1.59302 0.31128,-0.89721 0.31128,-1.83105 l 0,-1.00708 z"
           style="font-style:normal;font-variant:normal;font-weight:bold;font-stretch:normal;font-size:37.5px;line-height:125%;font-family:'Liberation Sans';-inkscape-font-specification:'Liberation Sans Bold';text-align:center;writing-mode:lr-tb;text-anchor:middle"
           id="path5712" />
        <path
           d="m -339.04028,155.03592 0,-3.79028 5.14526,0 0,3.79028 -5.14526,0 z m 0,23.38257 0,-19.81201 5.14526,0 0,19.81201 -5.14526,0 z"
           style="font-style:normal;font-variant:normal;font-weight:bold;font-stretch:normal;font-size:37.5px;line-height:125%;font-family:'Liberation Sans';-inkscape-font-specification:'Liberation Sans Bold';text-align:center;writing-mode:lr-tb;text-anchor:middle"
           id="path5714" />
        <path
           d="m -315.8042,178.41849 0,-11.1145 q 0,-1.15357 -0.1831,-2.10571 -0.18311,-0.97046 -0.60425,-1.64795 -0.42115,-0.6958 -1.09864,-1.08033 -0.67749,-0.38452 -1.64794,-0.38452 -0.93384,0 -1.70289,0.42115 -0.75073,0.40283 -1.30004,1.17187 -0.54932,0.75073 -0.8606,1.81275 -0.29297,1.0437 -0.29297,2.30712 l 0,10.62012 -5.14526,0 0,-15.38086 q 0,-0.64087 -0.0183,-1.31836 0,-0.67749 -0.0366,-1.28174 -0.0183,-0.62255 -0.0366,-1.09863 -0.0183,-0.49438 -0.0549,-0.73242 l 4.90723,0 q 0.0366,0.21973 0.0732,0.71411 0.0366,0.47608 0.0732,1.06201 0.0366,0.58594 0.0549,1.17188 0.0366,0.58594 0.0366,0.98877 l 0.0732,0 q 1.0437,-2.27051 2.61841,-3.2959 1.5747,-1.02539 3.75366,-1.02539 1.79443,0 3.02124,0.58594 1.24512,0.58593 2.01416,1.61132 0.78735,1.02539 1.13525,2.417 0.3479,1.3916 0.3479,3.00293 l 0,12.57934 -5.12695,0 z"
           style="font-style:normal;font-variant:normal;font-weight:bold;font-stretch:normal;font-size:37.5px;line-height:125%;font-family:'Liberation Sans';-inkscape-font-specification:'Liberation Sans Bold';text-align:center;writing-mode:lr-tb;text-anchor:middle"
           id="path5716" />
        <path
           d="m -297.60352,178.7847 q -2.14233,0 -3.86352,-0.62256 -1.70288,-0.64087 -2.91138,-1.9226 -1.20849,-1.30005 -1.84936,-3.24097 -0.64087,-1.95923 -0.64087,-4.57764 0,-2.83813 0.75073,-4.77905 0.76904,-1.94092 2.05078,-3.1311 1.30005,-1.2085 2.98462,-1.73951 1.68457,-0.531 3.55225,-0.531 2.34375,0 3.9917,0.82397 1.66626,0.80567 2.72827,2.27051 1.06201,1.46484 1.55639,3.51563 0.49439,2.03247 0.49439,4.50439 l 0,0.14648 -12.70752,0 q 0,1.24512 0.21973,2.32544 0.21972,1.06202 0.71411,1.84937 0.49438,0.76904 1.28174,1.22681 0.78735,0.43945 1.90429,0.43945 1.35498,0 2.21558,-0.56763 0.86059,-0.58594 1.2268,-1.79443 l 4.8523,0.42114 q -0.32959,0.84229 -0.93384,1.79443 -0.58594,0.95215 -1.57471,1.75782 -0.98876,0.78735 -2.47192,1.31836 -1.46484,0.51269 -3.57056,0.51269 z m 0,-17.30346 q -0.78735,0 -1.48315,0.27465 -0.67749,0.25635 -1.19019,0.84229 -0.49438,0.56763 -0.80566,1.48315 -0.31128,0.91553 -0.3479,2.19727 l 7.69043,0 q -0.14648,-2.39868 -1.15356,-3.58887 -1.00708,-1.20849 -2.70997,-1.20849 z"
           style="font-style:normal;font-variant:normal;font-weight:bold;font-stretch:normal;font-size:37.5px;line-height:125%;font-family:'Liberation Sans';-inkscape-font-specification:'Liberation Sans Bold';text-align:center;writing-mode:lr-tb;text-anchor:middle"
           id="path5718" />
        <path
           d="m -284.84106,178.41849 0,-15.16113 q 0,-0.64087 -0.0183,-1.35498 0,-0.71411 -0.0366,-1.35498 -0.0183,-0.65918 -0.0366,-1.17188 -0.0183,-0.531 -0.0549,-0.76904 l 4.90723,0 q 0.0366,0.21973 0.0732,0.76904 0.0366,0.53101 0.0732,1.17188 0.0366,0.64087 0.0549,1.28174 0.0366,0.62255 0.0366,1.00708 l 0.0732,0 q 0.38452,-1.08033 0.76904,-1.92261 0.38452,-0.8606 0.89722,-1.44653 0.531,-0.60425 1.26342,-0.91553 0.73243,-0.32959 1.81275,-0.32959 0.45776,0 0.89722,0.0916 0.45776,0.0732 0.6958,0.18311 l 0,4.30297 q -0.49439,-0.10986 -1.00708,-0.1831 -0.49439,-0.0916 -1.19019,-0.0916 -1.92261,0 -3.00293,1.55639 -1.06201,1.5564 -1.06201,4.61426 l 0,9.7229 -5.14526,0 z"
           style="font-style:normal;font-variant:normal;font-weight:bold;font-stretch:normal;font-size:37.5px;line-height:125%;font-family:'Liberation Sans';-inkscape-font-specification:'Liberation Sans Bold';text-align:center;writing-mode:lr-tb;text-anchor:middle"
           id="path5720" />
        <path
           d="m -270.26587,155.03592 0,-3.79028 5.14526,0 0,3.79028 -5.14526,0 z m 0,23.38257 0,-19.81201 5.14526,0 0,19.81201 -5.14526,0 z"
           style="font-style:normal;font-variant:normal;font-weight:bold;font-stretch:normal;font-size:37.5px;line-height:125%;font-family:'Liberation Sans';-inkscape-font-specification:'Liberation Sans Bold';text-align:center;writing-mode:lr-tb;text-anchor:middle"
           id="path5722" />
        <path
           d="m -261.23877,178.41849 0,-3.6438 9.8877,-12.45117 -9.13697,0 0,-3.71704 14.81324,0 0,3.68042 -9.83277,12.37793 10.72998,0 0,3.75366 -16.46118,0 z"
           style="font-style:normal;font-variant:normal;font-weight:bold;font-stretch:normal;font-size:37.5px;line-height:125%;font-family:'Liberation Sans';-inkscape-font-specification:'Liberation Sans Bold';text-align:center;writing-mode:lr-tb;text-anchor:middle"
           id="path5724" />
        <path
           d="m -236.53784,178.7847 q -1.42822,0 -2.56348,-0.38452 -1.11694,-0.40283 -1.9043,-1.15356 -0.78735,-0.76905 -1.20849,-1.88599 -0.42114,-1.11694 -0.42114,-2.54517 0,-1.75781 0.60424,-2.94799 0.62256,-1.2085 1.68457,-1.94092 1.06202,-0.75073 2.49024,-1.08032 1.42822,-0.3479 3.03955,-0.36622 l 4.26636,-0.0732 0,-1.00708 q 0,-1.08032 -0.20142,-1.79443 -0.1831,-0.73242 -0.54932,-1.19019 -0.36621,-0.45776 -0.91552,-0.64087 -0.53101,-0.20141 -1.22681,-0.20141 -0.64087,0 -1.15356,0.12817 -0.49439,0.12818 -0.8606,0.45777 -0.36621,0.31127 -0.60425,0.86059 -0.21972,0.53101 -0.31128,1.35498 l -5.36499,-0.25635 q 0.21973,-1.30004 0.80567,-2.36206 0.58593,-1.08032 1.61133,-1.86767 1.0437,-0.78736 2.54516,-1.2085 1.51978,-0.43945 3.55225,-0.43945 1.84936,0 3.2959,0.45776 1.44653,0.45777 2.45361,1.37329 1.00708,0.89722 1.53808,2.21558 0.53101,1.31836 0.53101,3.05786 l 0,7.21436 q 0,0.6958 0.0549,1.24511 0.0732,0.54932 0.23804,0.93384 0.1831,0.36621 0.49438,0.56763 0.32959,0.1831 0.84229,0.1831 0.58594,0 1.13525,-0.10986 l 0,2.7832 q -0.45776,0.10987 -0.82397,0.20142 -0.36621,0.0915 -0.73242,0.14648 -0.36621,0.0549 -0.78736,0.0916 -0.40283,0.0366 -0.95215,0.0366 -1.94091,0 -2.87475,-0.95215 -0.91553,-0.95215 -1.09863,-2.80151 l -0.10987,0 q -1.02539,1.84936 -2.63672,2.87475 -1.59301,1.02539 -3.88183,1.02539 z m 5.98755,-9.53979 -2.63672,0.0366 q -0.82398,0.0366 -1.57471,0.14648 -0.73242,0.0916 -1.30005,0.42115 -0.54931,0.31127 -0.8789,0.91552 -0.32959,0.60425 -0.32959,1.64795 0,1.40991 0.64087,2.10571 0.65918,0.67749 1.7395,0.67749 0.98877,0 1.79443,-0.42114 0.80567,-0.42114 1.35498,-1.09863 0.56763,-0.6958 0.87891,-1.59302 0.31128,-0.89721 0.31128,-1.83105 l 0,-1.00708 z"
           style="font-style:normal;font-variant:normal;font-weight:bold;font-stretch:normal;font-size:37.5px;line-height:125%;font-family:'Liberation Sans';-inkscape-font-specification:'Liberation Sans Bold';text-align:center;writing-mode:lr-tb;text-anchor:middle"
           id="path5726" />
        <path
           d="m -215.16943,178.74808 q -2.27051,0 -3.49732,-1.22681 -1.2268,-1.24511 -1.2268,-3.75366 l 0,-11.68213 -2.50855,0 0,-3.479 2.76489,0 1.61133,-4.65088 3.22266,0 0,4.65088 3.75366,0 0,3.479 -3.75366,0 0,10.29053 q 0,1.44653 0.54931,2.14233 0.54932,0.67749 1.70288,0.67749 0.47608,0 0.8606,-0.0732 0.38452,-0.0732 0.8606,-0.1831 l 0,3.18603 q -0.95215,0.31128 -2.01416,0.45777 -1.06202,0.16479 -2.32544,0.16479 z"
           style="font-style:normal;font-variant:normal;font-weight:bold;font-stretch:normal;font-size:37.5px;line-height:125%;font-family:'Liberation Sans';-inkscape-font-specification:'Liberation Sans Bold';text-align:center;writing-mode:lr-tb;text-anchor:middle"
           id="path5728" />
        <path
           d="m -207.71704,155.03592 0,-3.79028 5.14526,0 0,3.79028 -5.14526,0 z m 0,23.38257 0,-19.81201 5.14526,0 0,19.81201 -5.14526,0 z"
           style="font-style:normal;font-variant:normal;font-weight:bold;font-stretch:normal;font-size:37.5px;line-height:125%;font-family:'Liberation Sans';-inkscape-font-specification:'Liberation Sans Bold';text-align:center;writing-mode:lr-tb;text-anchor:middle"
           id="path5730" />
        <path
           d="m -178.49341,168.49417 q 0,2.27051 -0.64087,4.1565 -0.62256,1.88599 -1.88598,3.25928 -1.26343,1.35498 -3.14942,2.12402 -1.88598,0.75073 -4.39453,0.75073 -2.41699,0 -4.26636,-0.75073 -1.84936,-0.75073 -3.11279,-2.10571 -1.24512,-1.35498 -1.88599,-3.24097 -0.64086,-1.9043 -0.64086,-4.19312 0,-2.21557 0.60424,-4.08325 0.62256,-1.88598 1.86768,-3.25927 1.24512,-1.3733 3.1311,-2.14234 1.88599,-0.76904 4.41284,-0.76904 2.67334,0 4.55933,0.76904 1.88599,0.76904 3.07617,2.14234 1.2085,1.35498 1.75781,3.24096 0.56763,1.86768 0.56763,4.10156 z m -5.3833,0 q 0,-3.53393 -1.15356,-5.12695 -1.15357,-1.59302 -3.35083,-1.59302 -2.27051,0 -3.47901,1.61133 -1.20849,1.61133 -1.20849,5.10864 0,1.77613 0.31128,3.05787 0.32959,1.28173 0.91552,2.10571 0.58594,0.82397 1.40992,1.22681 0.82397,0.38452 1.81274,0.38452 1.13525,0 2.01416,-0.38452 0.89722,-0.40284 1.50146,-1.22681 0.60425,-0.82398 0.91553,-2.10571 0.31128,-1.28174 0.31128,-3.05787 z"
           style="font-style:normal;font-variant:normal;font-weight:bold;font-stretch:normal;font-size:37.5px;line-height:125%;font-family:'Liberation Sans';-inkscape-font-specification:'Liberation Sans Bold';text-align:center;writing-mode:lr-tb;text-anchor:middle"
           id="path5732" />
        <path
           d="m -161.55615,178.41849 0,-11.1145 q 0,-1.15357 -0.18311,-2.10571 -0.1831,-0.97046 -0.60425,-1.64795 -0.42114,-0.6958 -1.09863,-1.08033 -0.67749,-0.38452 -1.64795,-0.38452 -0.93384,0 -1.70288,0.42115 -0.75073,0.40283 -1.30005,1.17187 -0.54931,0.75073 -0.86059,1.81275 -0.29297,1.0437 -0.29297,2.30712 l 0,10.62012 -5.14527,0 0,-15.38086 q 0,-0.64087 -0.0183,-1.31836 0,-0.67749 -0.0366,-1.28174 -0.0183,-0.62255 -0.0366,-1.09863 -0.0183,-0.49438 -0.0549,-0.73242 l 4.90723,0 q 0.0366,0.21973 0.0732,0.71411 0.0366,0.47608 0.0732,1.06201 0.0366,0.58594 0.0549,1.17188 0.0366,0.58594 0.0366,0.98877 l 0.0733,0 q 1.0437,-2.27051 2.6184,-3.2959 1.57471,-1.02539 3.75367,-1.02539 1.79443,0 3.02124,0.58594 1.24511,0.58593 2.01416,1.61132 0.78735,1.02539 1.13525,2.417 0.3479,1.3916 0.3479,3.00293 l 0,12.57934 -5.12695,0 z"
           style="font-style:normal;font-variant:normal;font-weight:bold;font-stretch:normal;font-size:37.5px;line-height:125%;font-family:'Liberation Sans';-inkscape-font-specification:'Liberation Sans Bold';text-align:center;writing-mode:lr-tb;text-anchor:middle"
           id="path5734" />
      </g>
      <flowRoot
         transform="translate(1191.0687,344.41006)"
         style="font-style:normal;font-variant:normal;font-weight:normal;font-stretch:normal;font-size:22.09246063px;line-height:125%;font-family:Arial;-inkscape-font-specification:Arial;text-align:center;letter-spacing:0px;word-spacing:0px;writing-mode:tb-rl;text-anchor:middle;fill:#000000;fill-opacity:1;stroke:none;stroke-width:1px;stroke-linecap:butt;stroke-linejoin:miter;stroke-opacity:1;filter:url(#filter4795)"
         id="flowRoot4799"
         xml:space="preserve"><flowRegion
           id="flowRegion4801"><rect
             y="141.51576"
             x="-461.32489"
             height="68.669785"
             width="361.97287"
             id="rect4803"
             style="text-align:center;text-anchor:middle" /></flowRegion><flowPara
           style="font-style:normal;font-variant:normal;font-weight:bold;font-stretch:normal;font-size:37.5px;line-height:125%;font-family:'Liberation Sans';-inkscape-font-specification:'Liberation Sans Bold';text-align:center;writing-mode:lr-tb;text-anchor:middle"
           id="flowPara4805" /></flowRoot>      <g
         transform="matrix(0.78547282,0,0,0.78547282,805.23078,275.34349)"
         id="g3762-1-4">
        <path
           style="fill:#cc0033;fill-opacity:1;fill-rule:evenodd;stroke:none"
           d="m 30.4648,31.1875 c 0,3.3671 -2.7266,6.0937 -6.0937,6.0937 l -18.27735,0 C 2.73046,37.2812 0,34.5546 0,31.1875 L 0,12.9101 C 0,9.5468 2.73046,6.8164 6.09375,6.8164 l 18.27735,0 c 3.3671,0 6.0937,2.7304 6.0937,6.0937 l 0,18.2774 z"
           id="path55-2-6"
           inkscape:connector-curvature="0" />
        <path
           style="fill:#cc0033;fill-opacity:1;fill-rule:evenodd;stroke:none"
           d="m 36.5585,25.0976 c 0,3.3633 -2.7265,6.0899 -6.0937,6.0899 l -18.2773,0 c -3.36719,0 -6.09375,-2.7266 -6.09375,-6.0899 l 0,-18.2812 c 0,-3.3633 2.72656,-6.093801 6.09375,-6.093801 l 18.2773,0 c 3.3672,0 6.0937,2.730501 6.0937,6.093801 l 0,18.2812 z"
           id="path57-1-7"
           inkscape:connector-curvature="0" />
        <path
           inkscape:connector-curvature="0"
           style="fill:#ffffff;fill-rule:evenodd;stroke:none"
           d="m 964.53516,288.77734 0,7.75 c 0.0381,1.45757 1.0185,2.50448 2.58203,2.58399 l 3.81445,0 c 0.57476,-0.11101 1.23896,-0.6049 1.61328,-1.125 l 0,1.125 0.33594,0 1.97852,0 0.01,0 0,-7.75 c 0,-0.0795 -0.005,-0.15342 -0.01,-0.22461 l 0,-0.006 c -0.01,-0.101 -0.0253,-0.19348 -0.0469,-0.28125 -0.3114,-1.6083 -1.96881,-2.036 -2.26367,-2.0625 l 0,7.57422 c -0.33621,0.79338 -1.66556,1.32189 -3.08008,1.23242 -1.72588,-0.10931 -2.5597,-0.73553 -2.60937,-1.30859 l 0,-7.50782 -2.32422,0 z"
           transform="matrix(2.3583909,0,0,2.3583909,-2268.6562,-674.23473)"
           id="path59-0-9" />
      </g>
    </g>
  </g>
</svg>
